<?xml version="1.0" encoding="UTF-8" standalone="no"?>
<!DOCTYPE svg PUBLIC "-//W3C//DTD SVG 1.1//EN" "http://www.w3.org/Graphics/SVG/1.1/DTD/svg11.dtd">
<svg version="1.1" xmlns="http://www.w3.org/2000/svg" xmlns:xlink="http://www.w3.org/1999/xlink" preserveAspectRatio="xMidYMid meet" viewBox="0 0 66 66" width="66" height="66"><defs><path d="M37.6 16.76L38.84 17.03L40.06 17.37L41.25 17.77L42.41 18.23L43.53 18.75L44.63 19.32L45.7 19.95L46.72 20.63L47.72 21.36L48.67 22.13L49.58 22.96L50.44 23.83L51.27 24.75L52.04 25.7L52.77 26.7L53.44 27.73L54.07 28.8L54.63 29.9L55.15 31.04L55.6 32.21L55.99 33.41L56.33 34.63L56.6 35.88L56.8 37.15L56.93 38.45L57 39.77L57 39.88L56.99 39.92L56.99 39.96L56.98 40L56.97 40.03L56.96 40.07L56.95 40.11L56.94 40.14L56.93 40.18L56.91 40.21L56.9 40.24L56.88 40.28L56.86 40.31L56.84 40.34L56.82 40.38L56.8 40.41L56.78 40.44L56.76 40.47L56.73 40.49L56.71 40.52L56.68 40.55L56.65 40.57L56.62 40.6L56.59 40.62L56.56 40.65L56.53 40.67L56.5 40.69L56.46 40.71L40.77 49.54L40.76 49.55L40.72 49.57L40.71 49.58L40.69 49.58L40.68 49.59L40.66 49.6L40.64 49.6L40.63 49.61L40.61 49.62L40.59 49.62L40.58 49.63L40.56 49.63L40.54 49.64L40.53 49.64L40.51 49.65L40.48 49.65L40.46 49.66L40.42 49.66L40.41 49.67L40.32 49.67L40.3 49.68L40.21 49.68L40.09 49.66L40.04 49.65L39.98 49.64L39.93 49.62L39.88 49.61L39.82 49.58L39.77 49.56L39.73 49.54L39.63 49.48L39.59 49.44L39.55 49.41L39.51 49.37L39.47 49.33L39.44 49.29L39.4 49.25L39.37 49.2L39.34 49.16L39.31 49.11L39.27 49.01L39.25 48.96L39.23 48.9L39.22 48.85L39.21 48.79L39.2 48.74L39.19 48.68L39.19 38.23L39.18 37.9L39.15 37.57L39.11 37.25L39.05 36.93L38.97 36.61L38.88 36.31L38.77 36.01L38.65 35.71L38.52 35.43L38.37 35.15L38.21 34.88L38.03 34.62L37.84 34.37L37.65 34.13L37.44 33.89L37.21 33.67L36.98 33.46L36.74 33.26L36.49 33.08L36.23 32.9L35.96 32.74L35.68 32.59L35.39 32.46L35.09 32.34L34.79 32.23L34.48 32.14L34.17 32.07L33.84 32.01L33.52 31.97L33.18 31.94L32.82 31.94L32.49 31.97L32.16 32.01L31.84 32.07L31.52 32.14L31.21 32.23L30.91 32.34L30.61 32.46L30.05 32.74L29.78 32.9L29.51 33.08L29.26 33.27L29.02 33.46L28.79 33.67L28.57 33.9L28.36 34.13L28.16 34.37L27.97 34.62L27.8 34.88L27.63 35.15L27.35 35.71L27.23 36.01L27.12 36.31L27.03 36.61L26.96 36.93L26.9 37.25L26.85 37.57L26.82 37.9L26.81 38.23L26.81 48.68L26.8 48.74L26.79 48.79L26.78 48.85L26.77 48.9L26.75 48.96L26.73 49.01L26.71 49.06L26.69 49.11L26.66 49.16L26.63 49.2L26.6 49.25L26.57 49.29L26.53 49.33L26.49 49.37L26.45 49.41L26.41 49.44L26.37 49.48L26.32 49.51L26.28 49.54L26.23 49.56L26.18 49.59L26.13 49.61L26.07 49.63L26.02 49.64L25.97 49.65L25.91 49.66L25.85 49.67L25.8 49.68L25.68 49.68L25.67 49.67L25.6 49.67L25.58 49.66L25.54 49.66L25.53 49.65L25.49 49.65L25.48 49.64L25.46 49.64L25.44 49.63L25.42 49.63L25.41 49.62L25.39 49.62L25.37 49.61L25.36 49.6L25.34 49.6L25.33 49.59L25.31 49.58L25.29 49.58L25.28 49.57L25.26 49.56L25.25 49.55L25.23 49.54L9.54 40.71L9.5 40.69L9.47 40.67L9.44 40.65L9.41 40.62L9.38 40.6L9.35 40.57L9.32 40.55L9.3 40.52L9.22 40.44L9.18 40.38L9.16 40.34L9.14 40.31L9.12 40.28L9.1 40.25L9.09 40.21L9.07 40.18L9.06 40.14L9.05 40.11L9.04 40.07L9.03 40.03L9.02 40L9.01 39.96L9.01 39.88L9 39.84L9 39.77L9.07 38.45L9.2 37.16L9.41 35.88L9.68 34.63L10.01 33.41L10.4 32.21L10.86 31.04L11.37 29.91L11.94 28.8L12.56 27.73L13.24 26.7L13.96 25.7L14.74 24.75L15.56 23.83L16.42 22.96L17.33 22.14L18.29 21.36L19.28 20.63L20.31 19.95L21.37 19.32L22.47 18.75L23.6 18.23L24.76 17.77L25.94 17.37L27.16 17.04L28.4 16.76L29.66 16.55L30.94 16.41L32.24 16.33L33.76 16.33L35.06 16.41L36.34 16.55L37.6 16.76Z" id="m4oz7HziWi"></path><path d="M32.65 34.27L32.52 34.57L32.4 34.88L32.3 35.19L32.21 35.52L32.14 35.85L32.08 36.18L32.04 36.52L32.01 36.87L32 37.22L32 40.25L32 40.3L32 46.99L29.5 48.52L29.48 48.53L29.46 48.54L29.45 48.55L29.43 48.56L29.42 48.56L29.4 48.57L29.39 48.58L29.37 48.58L29.35 48.59L29.34 48.6L29.32 48.6L29.31 48.61L29.29 48.61L29.27 48.62L29.26 48.62L29.24 48.62L29.22 48.63L29.2 48.63L29.19 48.63L29.17 48.63L29.15 48.64L29.14 48.64L29.12 48.64L29.1 48.64L29.09 48.64L29.03 48.64L28.97 48.63L28.92 48.62L28.87 48.61L28.81 48.59L28.76 48.57L28.71 48.55L28.67 48.53L28.62 48.5L28.58 48.46L28.53 48.43L28.49 48.39L28.46 48.35L28.42 48.31L28.39 48.26L28.36 48.22L28.33 48.17L28.31 48.12L28.28 48.06L28.26 48.01L28.25 47.95L28.24 47.89L28.23 47.84L28.22 47.77L28.22 47.71L28.22 41.43L28.22 41.4L28.22 38.86L28.23 38.51L28.26 38.17L28.31 37.83L28.38 37.5L28.47 37.17L28.57 36.86L28.7 36.55L28.83 36.26L28.99 35.97L29.15 35.69L29.34 35.43L29.53 35.18L29.74 34.94L29.96 34.72L30.2 34.51L30.44 34.31L30.7 34.13L30.97 33.97L31.24 33.82L31.53 33.69L31.82 33.58L32.12 33.49L32.43 33.42L32.75 33.37L33.07 33.34L33.17 33.34L33.12 33.42L32.95 33.69L32.8 33.98L32.65 34.27Z" id="a1MxAPBkP3"></path></defs><g><g><g><use xlink:href="#m4oz7HziWi" opacity="1" fill="#FFFFFF" fill-opacity="1"></use><g><use xlink:href="#m4oz7HziWi" opacity="1" fill-opacity="0" stroke="#000000" stroke-width="1" stroke-opacity="0"></use></g></g><g><use xlink:href="#a1MxAPBkP3" opacity="1" fill="#e6ecf2" fill-opacity="1"></use><g><use xlink:href="#a1MxAPBkP3" opacity="1" fill-opacity="0" stroke="#000000" stroke-width="1" stroke-opacity="0"></use></g></g></g></g></svg>