<svg width="192" height="192" xmlns="http://www.w3.org/2000/svg" xmlns:xlink="http://www.w3.org/1999/xlink" preserveAspectRatio="xMidYMid meet">
 <defs>
  <path id="fFwEEMpEd" d="m144.54,87.61l0.43,0.3l0.44,0.31l0.42,0.31l0.83,0.65l0.41,0.33l0.4,0.33l0.4,0.34l0.39,0.35l0.4,0.36l0.38,0.36l0.38,0.36l0.37,0.38l0.71,0.75l0.37,0.39l0.68,0.8l0.34,0.4l0.32,0.4l0.33,0.42l0.63,0.84l0.59,0.87l0.29,0.43l0.56,0.88l0.27,0.46l0.77,1.38l0.48,0.94l0.22,0.47l0.22,0.49l0.22,0.47l0.2,0.5l0.2,0.48l0.22,0.57l0.21,0.58l0.21,0.58l0.39,1.16l0.17,0.58l0.32,1.18l0.15,0.58l0.15,0.61l0.12,0.58l0.24,1.19l0.1,0.61l0.1,0.59l0.08,0.61l0.08,0.59l0.06,0.61l0.11,1.21l0.04,0.6l0.03,0.62l0.03,1.2l0,0.61l-0.01,0.61l-0.01,0.61l-0.03,0.61l-0.03,0.6l-0.05,0.61l-0.05,0.6l-0.14,1.21l-0.08,0.61l-0.18,1.21l-0.12,0.6l-0.12,0.6l-0.13,0.6l-0.14,0.59l-0.45,1.9l-0.12,0.5l-0.15,0.49l-0.16,0.47l-0.17,0.48l-0.39,0.93l-0.45,0.86l-0.24,0.44l-0.27,0.42l-0.27,0.41l-0.29,0.39l-0.29,0.39l-0.31,0.38l-0.32,0.36l-0.33,0.36l-0.36,0.34l-0.34,0.33l-0.37,0.32l-0.37,0.31l-0.39,0.3l-0.4,0.28l-0.4,0.28l-0.41,0.25l-0.43,0.24l-0.43,0.23l-0.43,0.21l-0.45,0.21l-0.91,0.37l-0.94,0.29l-0.48,0.13l-0.48,0.11l-0.49,0.09l-0.49,0.07l-0.51,0.07l-0.5,0.05l-0.5,0.02l-0.52,0.01l-22.63,0.11l-7.21,0l-22.63,-0.11l-0.51,-0.01l-0.51,-0.03l-0.51,-0.04l-0.98,-0.14l-0.49,-0.1l-0.49,-0.11l-0.47,-0.12l-0.47,-0.15l-0.47,-0.16l-0.47,-0.17l-0.44,-0.18l-0.46,-0.21l-0.43,-0.21l-0.43,-0.23l-0.42,-0.24l-0.42,-0.25l-0.4,-0.28l-0.39,-0.28l-0.39,-0.3l-0.38,-0.31l-0.36,-0.32l-0.36,-0.33l-0.34,-0.34l-0.33,-0.36l-0.32,-0.36l-0.31,-0.38l-0.3,-0.39l-0.28,-0.4l-0.28,-0.41l-0.26,-0.41l-0.25,-0.44l-0.23,-0.43l-0.22,-0.45l-0.19,-0.45l-0.2,-0.47l-0.17,-0.47l-0.16,-0.47l-0.15,-0.5l-0.11,-0.49l-0.47,-1.9l-0.14,-0.59l-0.12,-0.6l-0.12,-0.6l-0.11,-0.6l-0.27,-1.82l-0.14,-1.21l-0.09,-1.21l-0.04,-0.6l-0.02,-0.61l-0.02,-0.62l0,-1.21l0.01,-0.59l0.02,-0.62l0.02,-0.61l0.05,-0.6l0.1,-1.21l0.07,-0.61l0.07,-0.59l0.09,-0.61l0.09,-0.59l0.11,-0.61l0.24,-1.19l0.12,-0.59l0.15,-0.6l0.14,-0.59l0.16,-0.58l0.34,-1.17l0.39,-1.16l0.2,-0.58l0.21,-0.58l0.23,-0.57l0.19,-0.49l0.21,-0.49l0.2,-0.48l0.23,-0.48l0.23,-0.47l0.47,-0.94l0.26,-0.47l0.25,-0.47l0.53,-0.9l0.57,-0.88l0.29,-0.44l0.29,-0.44l0.3,-0.42l0.32,-0.42l0.31,-0.43l0.65,-0.81l0.33,-0.41l0.35,-0.39l0.34,-0.4l0.35,-0.39l1.1,-1.13l0.38,-0.36l0.37,-0.36l0.39,-0.36l1.2,-1.03l0.41,-0.32l0.42,-0.33l0.42,-0.32l0.42,-0.31l0.44,-0.31l0.43,-0.3l0.45,-0.3l5.53,-3.62l41.36,0l5.55,3.62l0.45,0.3zm-41.51,7.03l4.5,0l0.34,0l0.34,0.01l0.33,0l0.34,0.01l0.33,0l0.34,0.02l0.33,0.01l0.32,0.02l0.32,0.02l0.32,0.03l0.32,0.03l0.31,0.03l0.31,0.04l0.31,0.04l0.3,0.05l0.3,0.06l0.29,0.06l0.29,0.07l0.28,0.07l0.28,0.08l0.27,0.09l0.27,0.1l0.26,0.1l0.25,0.11l0.25,0.12l0.24,0.13l0.24,0.14l0.23,0.15l0.22,0.15l0.21,0.17l0.21,0.17l0.2,0.19l0.19,0.2l0.18,0.2l0.18,0.22l0.17,0.23l0.15,0.25l0.15,0.25l0.14,0.27l0.13,0.28l-12.3,0l-2.64,3.97l15.44,0l0,0.03l0,0.22l-0.02,0.22l-0.02,0.22l-0.03,0.24l-0.05,0.23l-0.05,0.24l-0.06,0.24l-0.08,0.24l-0.09,0.24l-0.09,0.25l-0.11,0.24l-0.12,0.24l-0.14,0.25l-0.14,0.24l-0.16,0.24l-0.18,0.23l-0.18,0.23l-0.2,0.23l-0.22,0.23l-0.23,0.22l-0.24,0.22l-0.26,0.2l-0.27,0.21l-0.29,0.19l-0.31,0.19l-0.32,0.18l-0.34,0.17l-0.35,0.16l-0.37,0.16l-0.39,0.14l-0.41,0.13l-0.42,0.12l-0.44,0.11l-0.46,0.09l-0.48,0.08l-0.5,0.07l-0.52,0.06l-0.54,0.04l-0.56,0.02l-0.57,0.01l-3.8,-0.01l0.01,3.72l15.19,18.99l6.76,0l-15.72,-19.65l0.49,-0.03l0.48,-0.04l0.48,-0.06l0.48,-0.07l0.47,-0.08l0.47,-0.09l0.47,-0.11l0.46,-0.11l0.45,-0.13l0.45,-0.14l0.45,-0.16l0.44,-0.16l0.43,-0.18l0.42,-0.18l0.42,-0.2l0.41,-0.21l0.4,-0.22l0.39,-0.24l0.38,-0.24l0.37,-0.26l0.36,-0.26l0.35,-0.28l0.34,-0.29l0.32,-0.3l0.32,-0.31l0.3,-0.32l0.28,-0.34l0.28,-0.34l0.26,-0.36l0.24,-0.36l0.23,-0.38l0.22,-0.39l0.2,-0.4l0.18,-0.4l0.17,-0.42l0.15,-0.43l0.13,-0.44l0.11,-0.45l0.09,-0.47l0.08,-0.47l4.83,0l2.65,-3.97l-7.55,0l-0.02,-0.12l-0.03,-0.11l-0.02,-0.12l-0.03,-0.11l-0.03,-0.11l-0.03,-0.12l-0.03,-0.11l-0.04,-0.11l-0.03,-0.12l-0.04,-0.11l-0.03,-0.11l-0.04,-0.11l-0.04,-0.11l-0.04,-0.11l-0.04,-0.11l-0.05,-0.11l-0.04,-0.11l-0.05,-0.11l-0.05,-0.1l-0.05,-0.11l-0.05,-0.1l-0.05,-0.11l-0.05,-0.1l-0.06,-0.11l-0.05,-0.1l-0.06,-0.1l-0.06,-0.1l-0.06,-0.1l-0.06,-0.1l-0.07,-0.1l-0.06,-0.09l-0.07,-0.1l-0.06,-0.09l-0.07,-0.1l-0.07,-0.09l-0.07,-0.09l-0.08,-0.09l-0.07,-0.09l-0.08,-0.09l-0.07,-0.09l6.9,0l2.65,-3.97l-25.93,0l-2.64,3.97zm-18.68,-17.78l0.34,0.23l0.32,0.22l0.33,0.24l0.63,0.51l0.32,0.25l0.29,0.25l0.31,0.25l0.3,0.28l0.3,0.26l0.28,0.27l0.57,0.57l0.55,0.58l0.28,0.29l0.26,0.3l0.26,0.31l0.25,0.31l0.24,0.31l0.01,0l-2.48,1.62l-0.48,0.31l-0.46,0.32l-0.47,0.33l-0.46,0.34l-0.45,0.33l-0.45,0.37l-0.44,0.34l-0.85,0.73l-0.43,0.38l-0.42,0.39l-0.41,0.38l-0.4,0.4l-0.79,0.8l-0.39,0.42l-0.39,0.41l-0.36,0.42l-0.38,0.43l-0.35,0.44l-0.7,0.88l-0.33,0.45l-0.35,0.45l-0.32,0.46l-0.32,0.47l-0.3,0.48l-0.61,0.95l-0.57,0.97l-0.28,0.49l-0.27,0.5l-0.51,1.01l-0.26,0.51l-0.22,0.52l-0.46,1.05l-0.21,0.53l-0.24,0.61l-0.23,0.62l-0.21,0.62l-0.22,0.63l-0.39,1.25l-0.17,0.62l-0.18,0.64l-0.15,0.64l-0.16,0.63l-0.14,0.64l-0.25,1.29l-0.11,0.64l-0.11,0.65l-0.09,0.64l-0.08,0.65l-0.07,0.64l-0.11,1.31l-0.05,0.65l-0.02,0.65l-0.02,0.66l-0.03,0.65l0,0.65l0.02,0.07l-3.81,0.01l-5.49,0l-17.22,-0.06l-0.39,-0.02l-0.39,-0.02l-0.37,-0.03l-0.38,-0.05l-0.38,-0.06l-0.37,-0.08l-0.37,-0.08l-0.37,-0.09l-0.35,-0.11l-0.71,-0.25l-0.68,-0.3l-0.34,-0.16l-0.32,-0.18l-0.32,-0.17l-0.32,-0.2l-0.3,-0.22l-0.3,-0.2l-0.3,-0.23l-0.28,-0.24l-0.28,-0.24l-0.27,-0.25l-0.27,-0.26l-0.25,-0.28l-0.24,-0.27l-0.24,-0.29l-0.23,-0.3l-0.2,-0.3l-0.22,-0.31l-0.39,-0.64l-0.17,-0.33l-0.17,-0.35l-0.15,-0.34l-0.15,-0.35l-0.12,-0.36l-0.13,-0.36l-0.1,-0.38l-0.09,-0.38l-0.36,-1.44l-0.2,-0.91l-0.09,-0.46l-0.08,-0.46l-0.21,-1.37l-0.1,-0.92l-0.04,-0.46l-0.03,-0.47l-0.04,-0.46l-0.01,-0.47l-0.01,-0.45l-0.01,-0.47l0,-0.46l0.01,-0.46l0.01,-0.46l0.03,-0.46l0.03,-0.46l0.08,-0.92l0.05,-0.46l0.05,-0.46l0.14,-0.91l0.08,-0.46l0.18,-0.9l0.09,-0.46l0.12,-0.45l0.11,-0.45l0.12,-0.45l0.12,-0.44l0.14,-0.45l0.15,-0.43l0.15,-0.45l0.15,-0.43l0.16,-0.45l0.17,-0.43l0.15,-0.38l0.32,-0.73l0.34,-0.73l0.36,-0.71l0.2,-0.37l0.19,-0.34l0.4,-0.69l0.43,-0.67l0.22,-0.34l0.22,-0.34l0.23,-0.32l0.48,-0.64l0.49,-0.61l0.25,-0.32l0.53,-0.6l0.27,-0.29l0.28,-0.29l0.56,-0.57l0.28,-0.29l0.29,-0.27l0.3,-0.26l0.29,-0.28l0.62,-0.51l0.31,-0.24l0.32,-0.27l0.31,-0.24l0.33,-0.24l0.66,-0.45l0.33,-0.22l3.5,-2.29l32.9,0l3.51,2.29l0.34,0.22zm-24,14.88l-12.05,0l0,3.95l12.05,0l0,12.05l3.95,0l0,-12.05l7.67,0l0.18,-0.33l0.28,-0.49l0.57,-0.97l0.61,-0.95l0.3,-0.48l0.32,-0.47l0.19,-0.26l-10.12,0l0,-12.05l-3.95,0l0,12.05zm42.04,-37.65l0.48,0.05l0.48,0.07l0.47,0.08l0.48,0.09l0.47,0.1l0.48,0.13l0.45,0.14l0.47,0.15l0.92,0.37l3.23,1.4l0.53,0.23l0.53,0.2l0.54,0.18l0.55,0.16l0.54,0.15l0.56,0.12l0.54,0.12l0.56,0.08l0.55,0.07l0.56,0.05l0.56,0.04l0.56,0.01l0.56,-0.01l0.56,-0.02l0.56,-0.05l0.56,-0.06l0.56,-0.08l0.55,-0.1l0.55,-0.11l0.55,-0.14l0.55,-0.15l0.53,-0.17l0.54,-0.2l0.53,-0.21l0.52,-0.23l0.52,-0.24l0.6,-0.31l0.51,-0.24l0.5,-0.22l0.51,-0.2l0.53,-0.19l0.52,-0.17l1.06,-0.27l0.53,-0.1l0.54,-0.1l0.54,-0.06l0.55,-0.06l0.53,-0.04l0.55,-0.01l0.54,0l0.55,0.03l0.53,0.03l0.55,0.07l0.54,0.08l0.54,0.09l0.53,0.11l0.53,0.14l0.53,0.15l0.52,0.17l0.52,0.2l0.51,0.21l0.51,0.23l8.4,3.97l-1.6,1.77l-0.5,0.57l-0.49,0.57l-0.48,0.6l-0.46,0.59l-0.45,0.61l-0.44,0.61l-0.43,0.63l-0.41,0.63l-0.39,0.64l-0.39,0.65l-0.37,0.65l-0.35,0.68l-0.34,0.66l-0.34,0.69l-0.3,0.68l-0.3,0.69l-0.29,0.69l-0.27,0.71l-0.25,0.71l-0.24,0.72l-0.23,0.72l-0.21,0.73l-0.19,0.73l-0.18,0.74l-0.16,0.74l-0.09,0.43l-38.9,0l-0.33,-1.08l-0.22,-0.7l-0.24,-0.7l-0.25,-0.69l-0.26,-0.69l-0.27,-0.67l-0.6,-1.35l-0.32,-0.65l-0.33,-0.66l-0.34,-0.65l-0.36,-0.64l-0.36,-0.63l-0.39,-0.62l-0.39,-0.62l-0.41,-0.61l-0.85,-1.19l-0.44,-0.58l-0.46,-0.57l-0.47,-0.57l-0.48,-0.56l-0.98,-1.08l-0.52,-0.52l-0.52,-0.53l-0.54,-0.5l-1.92,-1.78l8.84,-4.3l0.44,-0.21l0.46,-0.19l0.46,-0.17l0.45,-0.16l0.47,-0.15l0.47,-0.13l0.47,-0.11l0.47,-0.1l0.48,-0.08l0.96,-0.12l0.48,-0.03l0.48,-0.01l0.48,0l0.49,0.01l0.48,0.02zm-49.96,-2.72l0.51,0.06l0.49,0.08l0.49,0.1l0.49,0.13l0.49,0.15l0.48,0.17l0.47,0.19l2.46,1.08l0.56,0.22l0.56,0.2l0.56,0.17l0.57,0.15l0.57,0.11l0.58,0.09l0.59,0.07l0.58,0.04l0.58,0.01l0.59,-0.01l0.58,-0.05l0.58,-0.07l0.57,-0.09l0.57,-0.12l0.58,-0.15l0.56,-0.17l0.56,-0.21l0.54,-0.23l0.54,-0.25l0.46,-0.23l0.52,-0.25l0.54,-0.22l0.54,-0.19l0.55,-0.17l0.55,-0.14l0.56,-0.11l0.56,-0.08l0.56,-0.06l0.57,-0.04l0.56,-0.01l0.57,0.03l0.56,0.04l0.56,0.07l0.56,0.1l0.56,0.13l0.55,0.16l0.55,0.18l0.53,0.21l0.53,0.23l2.35,1.11l-0.41,0.43l-0.81,0.94l-0.77,0.96l-0.74,1l-0.7,1.02l-0.67,1.06l-0.62,1.08l-0.58,1.1l-0.55,1.14l-0.5,1.15l-0.46,1.18l-0.41,1.21l-0.37,1.22l-0.33,1.24l-0.17,0.79l-25.41,0l-0.03,-0.09l-0.24,-0.73l-0.25,-0.73l-0.27,-0.71l-0.29,-0.71l-0.32,-0.69l-0.33,-0.69l-0.34,-0.67l-0.37,-0.68l-0.39,-0.65l-0.4,-0.65l-0.42,-0.63l-0.45,-0.63l-0.45,-0.6l-0.47,-0.6l-0.49,-0.59l-0.51,-0.57l-0.52,-0.56l-0.54,-0.54l-0.56,-0.54l-1.46,-1.35l6.73,-3.26l0.46,-0.22l0.48,-0.2l0.48,-0.16l0.48,-0.14l0.49,-0.13l0.49,-0.1l0.5,-0.07l0.49,-0.06l0.51,-0.03l0.5,-0.01l0.5,0.01l0.5,0.03z"/>
 </defs>
 <g>
  <title>background</title>
  <rect fill="none" id="canvas_background" height="402" width="582" y="-1" x="-1"/>
 </g>
 <g>
  <title>Layer 1</title>
  <defs>
   <path id="svg_52" d="m190,100c0,49.68 -40.32,90 -90,90c-49.67,0 -90,-40.32 -90,-90c0,-49.67 40.33,-90 90,-90c49.68,0 90,40.33 90,90z"/>
   <mask maskUnits="userSpaceOnUse" height="192" width="192" y="4" x="4" id="svg_51">
    <rect id="svg_54" fill="white" height="192" width="192" y="4" x="4"/>
    <use id="svg_55" fill="black" xlink:href="#svg_52"/>
   </mask>
   <path id="svg_50" d="m185,100c0,46.92 -38.08,85 -85,85c-46.91,0 -85,-38.08 -85,-85c0,-46.91 38.09,-85 85,-85c46.92,0 85,38.09 85,85z"/>
   <mask maskUnits="userSpaceOnUse" height="182" width="182" y="9" x="9" id="svg_49">
    <rect id="svg_56" fill="white" height="182" width="182" y="9" x="9"/>
    <use id="svg_57" fill="black" xlink:href="#svg_50"/>
   </mask>
   <path id="svg_48" d="m9.3,40.63l0,8.4l0,0l0,-8.4z"/>
   <path id="svg_47" d="m5.1,44.83l8.4,0"/>
   <path id="svg_46" d="m29.85,15l0,6l0,0l0,-6z"/>
   <path id="svg_45" d="m26.85,18l6,0"/>
   <path id="svg_44" d="m173.32,174.29l0,7l0,0l0,-7z"/>
   <path id="svg_43" d="m169.82,177.79l7,0"/>
   <path id="svg_42" d="m194.2,149.04l0,8.4l0,0l0,-8.4z"/>
   <path id="svg_41" d="m190,153.24l8.4,0"/>
   <path id="svg_40" d="m25.58,34.09c0,1.1 -0.9,2 -2,2c-1.11,0 -2,-0.9 -2,-2c0,-1.11 0.89,-2 2,-2c1.1,0 2,0.89 2,2z"/>
   <path id="svg_39" d="m11.96,7.34c0,1.47 -1.19,2.66 -2.66,2.66c-1.47,0 -2.67,-1.19 -2.67,-2.66c0,-1.47 1.2,-2.67 2.67,-2.67c1.47,0 2.66,1.2 2.66,2.67z"/>
   <path id="svg_38" d="m7.21,24.73l-0.39,2.44l-2.06,-2.06l-2.06,-2.06l2.44,-0.38l2.45,-0.39l-0.38,2.45z"/>
   <path id="svg_37" d="m193.33,188.47l-2.44,-0.39l2.06,-2.06l2.06,-2.06l0.39,2.44l0.38,2.45l-2.45,-0.38z"/>
   <clipPath id="svg_36">
    <use x="720.263608" y="725.608628" id="svg_58" xlink:href="#svg_37"/>
   </clipPath>
   <path id="svg_35" d="m191.83,172.4c0,0.82 -0.67,1.5 -1.5,1.5c-0.83,0 -1.5,-0.68 -1.5,-1.5c0,-0.83 0.67,-1.5 1.5,-1.5c0.83,0 1.5,0.67 1.5,1.5z"/>
   <clipPath id="svg_34">
    <use x="720.263608" y="725.608628" id="svg_59" xlink:href="#svg_35"/>
   </clipPath>
   <path id="svg_33" d="m155.91,186.13l-3.72,0.32l0.36,4.08l-3.8,0.34l0.33,3.74"/>
   <path id="svg_32" d="m55.86,11.85l-1.51,-3.41l-3.75,1.67l-1.54,-3.48l-3.44,1.53"/>
   <path id="svg_31" d="m25,8.5c0,0.82 -0.67,1.5 -1.5,1.5c-0.83,0 -1.5,-0.68 -1.5,-1.5c0,-0.83 0.67,-1.5 1.5,-1.5c0.83,0 1.5,0.67 1.5,1.5z"/>
   <clipPath id="svg_30">
    <use x="720.263608" y="725.608628" id="svg_60" xlink:href="#svg_31"/>
   </clipPath>
  </defs>
  <g stroke="null" id="svg_357">
   <g stroke="null" transform="matrix(0.5370525735363135,0,0,0.5428791817841425,-34.38284237508843,-45.77543683314212) " id="svg_340">
    <g stroke="null" id="svg_341">
     <g stroke="null" id="svg_342">
      <g stroke="null" id="svg_343" clip-path="url(#svg_330)">
       <use stroke="#037dca" fill="#037dca" x="211.361976" y="218.12116" id="svg_344" stroke-width="16" fill-opacity="0" xlink:href="#svg_331"/>
      </g>
     </g>
     <g stroke="null" id="svg_345">
      <use stroke="null" x="211.361976" y="218.12116" id="svg_346" fill="#037dca" xlink:href="#svg_329"/>
      <g stroke="null" id="svg_347" mask="url(#svg_328)">
       <use stroke="#037dca" fill="#037dca" x="211.361976" y="218.12116" id="svg_348" stroke-opacity="0" stroke-width="2" fill-opacity="0" xlink:href="#svg_329"/>
      </g>
     </g>
     <g stroke="null" id="svg_349">
      <use stroke="null" x="211.361976" y="218.12116" id="svg_350" fill="#037dca" xlink:href="#svg_327"/>
      <g stroke="null" id="svg_351" mask="url(#svg_326)">
       <use stroke="#037dca" fill="#037dca" x="211.361976" y="218.12116" id="svg_352" stroke-width="2" fill-opacity="0" xlink:href="#svg_327"/>
      </g>
     </g>
     <g stroke="null" id="svg_353">
      <use stroke="null" x="211.361976" y="218.12116" id="svg_354" fill="#037dca" xlink:href="#svg_325"/>
      <g stroke="null" id="svg_355" mask="url(#svg_324)">
       <use stroke="#037dca" fill="#037dca" x="211.361976" y="218.12116" id="svg_356" stroke-width="2" fill-opacity="0" xlink:href="#svg_325"/>
      </g>
     </g>
    </g>
   </g>
  </g>
  <defs>
   <path id="svg_129" d="m144.54,87.61l0.43,0.3l0.44,0.31l0.42,0.31l0.83,0.65l0.41,0.33l0.4,0.33l0.4,0.34l0.39,0.35l0.4,0.36l0.38,0.36l0.38,0.36l0.37,0.38l0.71,0.75l0.37,0.39l0.68,0.8l0.34,0.4l0.32,0.4l0.33,0.42l0.63,0.84l0.59,0.87l0.29,0.43l0.56,0.88l0.27,0.46l0.77,1.38l0.48,0.94l0.22,0.47l0.22,0.49l0.22,0.47l0.2,0.5l0.2,0.48l0.22,0.57l0.21,0.58l0.21,0.58l0.39,1.16l0.17,0.58l0.32,1.18l0.15,0.58l0.15,0.61l0.12,0.58l0.24,1.19l0.1,0.61l0.1,0.59l0.08,0.61l0.08,0.59l0.06,0.61l0.11,1.21l0.04,0.6l0.03,0.62l0.03,1.2l0,0.61l-0.01,0.61l-0.01,0.61l-0.03,0.61l-0.03,0.6l-0.05,0.61l-0.05,0.6l-0.14,1.21l-0.08,0.61l-0.18,1.21l-0.12,0.6l-0.12,0.6l-0.13,0.6l-0.14,0.59l-0.45,1.9l-0.12,0.5l-0.15,0.49l-0.16,0.47l-0.17,0.48l-0.39,0.93l-0.45,0.86l-0.24,0.44l-0.27,0.42l-0.27,0.41l-0.29,0.39l-0.29,0.39l-0.31,0.38l-0.32,0.36l-0.33,0.36l-0.36,0.34l-0.34,0.33l-0.37,0.32l-0.37,0.31l-0.39,0.3l-0.4,0.28l-0.4,0.28l-0.41,0.25l-0.43,0.24l-0.43,0.23l-0.43,0.21l-0.45,0.21l-0.91,0.37l-0.94,0.29l-0.48,0.13l-0.48,0.11l-0.49,0.09l-0.49,0.07l-0.51,0.07l-0.5,0.05l-0.5,0.02l-0.52,0.01l-22.63,0.11l-7.21,0l-22.63,-0.11l-0.51,-0.01l-0.51,-0.03l-0.51,-0.04l-0.98,-0.14l-0.49,-0.1l-0.49,-0.11l-0.47,-0.12l-0.47,-0.15l-0.47,-0.16l-0.47,-0.17l-0.44,-0.18l-0.46,-0.21l-0.43,-0.21l-0.43,-0.23l-0.42,-0.24l-0.42,-0.25l-0.4,-0.28l-0.39,-0.28l-0.39,-0.3l-0.38,-0.31l-0.36,-0.32l-0.36,-0.33l-0.34,-0.34l-0.33,-0.36l-0.32,-0.36l-0.31,-0.38l-0.3,-0.39l-0.28,-0.4l-0.28,-0.41l-0.26,-0.41l-0.25,-0.44l-0.23,-0.43l-0.22,-0.45l-0.19,-0.45l-0.2,-0.47l-0.17,-0.47l-0.16,-0.47l-0.15,-0.5l-0.11,-0.49l-0.47,-1.9l-0.14,-0.59l-0.12,-0.6l-0.12,-0.6l-0.11,-0.6l-0.27,-1.82l-0.14,-1.21l-0.09,-1.21l-0.04,-0.6l-0.02,-0.61l-0.02,-0.62l0,-1.21l0.01,-0.59l0.02,-0.62l0.02,-0.61l0.05,-0.6l0.1,-1.21l0.07,-0.61l0.07,-0.59l0.09,-0.61l0.09,-0.59l0.11,-0.61l0.24,-1.19l0.12,-0.59l0.15,-0.6l0.14,-0.59l0.16,-0.58l0.34,-1.17l0.39,-1.16l0.2,-0.58l0.21,-0.58l0.23,-0.57l0.19,-0.49l0.21,-0.49l0.2,-0.48l0.23,-0.48l0.23,-0.47l0.47,-0.94l0.26,-0.47l0.25,-0.47l0.53,-0.9l0.57,-0.88l0.29,-0.44l0.29,-0.44l0.3,-0.42l0.32,-0.42l0.31,-0.43l0.65,-0.81l0.33,-0.41l0.35,-0.39l0.34,-0.4l0.35,-0.39l1.1,-1.13l0.38,-0.36l0.37,-0.36l0.39,-0.36l1.2,-1.03l0.41,-0.32l0.42,-0.33l0.42,-0.32l0.42,-0.31l0.44,-0.31l0.43,-0.3l0.45,-0.3l5.53,-3.62l41.36,0l5.55,3.62l0.45,0.3zm-41.51,7.03l4.5,0l0.34,0l0.34,0.01l0.33,0l0.34,0.01l0.33,0l0.34,0.02l0.33,0.01l0.32,0.02l0.32,0.02l0.32,0.03l0.32,0.03l0.31,0.03l0.31,0.04l0.31,0.04l0.3,0.05l0.3,0.06l0.29,0.06l0.29,0.07l0.28,0.07l0.28,0.08l0.27,0.09l0.27,0.1l0.26,0.1l0.25,0.11l0.25,0.12l0.24,0.13l0.24,0.14l0.23,0.15l0.22,0.15l0.21,0.17l0.21,0.17l0.2,0.19l0.19,0.2l0.18,0.2l0.18,0.22l0.17,0.23l0.15,0.25l0.15,0.25l0.14,0.27l0.13,0.28l-12.3,0l-2.64,3.97l15.44,0l0,0.03l0,0.22l-0.02,0.22l-0.02,0.22l-0.03,0.24l-0.05,0.23l-0.05,0.24l-0.06,0.24l-0.08,0.24l-0.09,0.24l-0.09,0.25l-0.11,0.24l-0.12,0.24l-0.14,0.25l-0.14,0.24l-0.16,0.24l-0.18,0.23l-0.18,0.23l-0.2,0.23l-0.22,0.23l-0.23,0.22l-0.24,0.22l-0.26,0.2l-0.27,0.21l-0.29,0.19l-0.31,0.19l-0.32,0.18l-0.34,0.17l-0.35,0.16l-0.37,0.16l-0.39,0.14l-0.41,0.13l-0.42,0.12l-0.44,0.11l-0.46,0.09l-0.48,0.08l-0.5,0.07l-0.52,0.06l-0.54,0.04l-0.56,0.02l-0.57,0.01l-3.8,-0.01l0.01,3.72l15.19,18.99l6.76,0l-15.72,-19.65l0.49,-0.03l0.48,-0.04l0.48,-0.06l0.48,-0.07l0.47,-0.08l0.47,-0.09l0.47,-0.11l0.46,-0.11l0.45,-0.13l0.45,-0.14l0.45,-0.16l0.44,-0.16l0.43,-0.18l0.42,-0.18l0.42,-0.2l0.41,-0.21l0.4,-0.22l0.39,-0.24l0.38,-0.24l0.37,-0.26l0.36,-0.26l0.35,-0.28l0.34,-0.29l0.32,-0.3l0.32,-0.31l0.3,-0.32l0.28,-0.34l0.28,-0.34l0.26,-0.36l0.24,-0.36l0.23,-0.38l0.22,-0.39l0.2,-0.4l0.18,-0.4l0.17,-0.42l0.15,-0.43l0.13,-0.44l0.11,-0.45l0.09,-0.47l0.08,-0.47l4.83,0l2.65,-3.97l-7.55,0l-0.02,-0.12l-0.03,-0.11l-0.02,-0.12l-0.03,-0.11l-0.03,-0.11l-0.03,-0.12l-0.03,-0.11l-0.04,-0.11l-0.03,-0.12l-0.04,-0.11l-0.03,-0.11l-0.04,-0.11l-0.04,-0.11l-0.04,-0.11l-0.04,-0.11l-0.05,-0.11l-0.04,-0.11l-0.05,-0.11l-0.05,-0.1l-0.05,-0.11l-0.05,-0.1l-0.05,-0.11l-0.05,-0.1l-0.06,-0.11l-0.05,-0.1l-0.06,-0.1l-0.06,-0.1l-0.06,-0.1l-0.06,-0.1l-0.07,-0.1l-0.06,-0.09l-0.07,-0.1l-0.06,-0.09l-0.07,-0.1l-0.07,-0.09l-0.07,-0.09l-0.08,-0.09l-0.07,-0.09l-0.08,-0.09l-0.07,-0.09l6.9,0l2.65,-3.97l-25.93,0l-2.64,3.97zm-18.68,-17.78l0.34,0.23l0.32,0.22l0.33,0.24l0.63,0.51l0.32,0.25l0.29,0.25l0.31,0.25l0.3,0.28l0.3,0.26l0.28,0.27l0.57,0.57l0.55,0.58l0.28,0.29l0.26,0.3l0.26,0.31l0.25,0.31l0.24,0.31l0.01,0l-2.48,1.62l-0.48,0.31l-0.46,0.32l-0.47,0.33l-0.46,0.34l-0.45,0.33l-0.45,0.37l-0.44,0.34l-0.85,0.73l-0.43,0.38l-0.42,0.39l-0.41,0.38l-0.4,0.4l-0.79,0.8l-0.39,0.42l-0.39,0.41l-0.36,0.42l-0.38,0.43l-0.35,0.44l-0.7,0.88l-0.33,0.45l-0.35,0.45l-0.32,0.46l-0.32,0.47l-0.3,0.48l-0.61,0.95l-0.57,0.97l-0.28,0.49l-0.27,0.5l-0.51,1.01l-0.26,0.51l-0.22,0.52l-0.46,1.05l-0.21,0.53l-0.24,0.61l-0.23,0.62l-0.21,0.62l-0.22,0.63l-0.39,1.25l-0.17,0.62l-0.18,0.64l-0.15,0.64l-0.16,0.63l-0.14,0.64l-0.25,1.29l-0.11,0.64l-0.11,0.65l-0.09,0.64l-0.08,0.65l-0.07,0.64l-0.11,1.31l-0.05,0.65l-0.02,0.65l-0.02,0.66l-0.03,0.65l0,0.65l0.02,0.07l-3.81,0.01l-5.49,0l-17.22,-0.06l-0.39,-0.02l-0.39,-0.02l-0.37,-0.03l-0.38,-0.05l-0.38,-0.06l-0.37,-0.08l-0.37,-0.08l-0.37,-0.09l-0.35,-0.11l-0.71,-0.25l-0.68,-0.3l-0.34,-0.16l-0.32,-0.18l-0.32,-0.17l-0.32,-0.2l-0.3,-0.22l-0.3,-0.2l-0.3,-0.23l-0.28,-0.24l-0.28,-0.24l-0.27,-0.25l-0.27,-0.26l-0.25,-0.28l-0.24,-0.27l-0.24,-0.29l-0.23,-0.3l-0.2,-0.3l-0.22,-0.31l-0.39,-0.64l-0.17,-0.33l-0.17,-0.35l-0.15,-0.34l-0.15,-0.35l-0.12,-0.36l-0.13,-0.36l-0.1,-0.38l-0.09,-0.38l-0.36,-1.44l-0.2,-0.91l-0.09,-0.46l-0.08,-0.46l-0.21,-1.37l-0.1,-0.92l-0.04,-0.46l-0.03,-0.47l-0.04,-0.46l-0.01,-0.47l-0.01,-0.45l-0.01,-0.47l0,-0.46l0.01,-0.46l0.01,-0.46l0.03,-0.46l0.03,-0.46l0.08,-0.92l0.05,-0.46l0.05,-0.46l0.14,-0.91l0.08,-0.46l0.18,-0.9l0.09,-0.46l0.12,-0.45l0.11,-0.45l0.12,-0.45l0.12,-0.44l0.14,-0.45l0.15,-0.43l0.15,-0.45l0.15,-0.43l0.16,-0.45l0.17,-0.43l0.15,-0.38l0.32,-0.73l0.34,-0.73l0.36,-0.71l0.2,-0.37l0.19,-0.34l0.4,-0.69l0.43,-0.67l0.22,-0.34l0.22,-0.34l0.23,-0.32l0.48,-0.64l0.49,-0.61l0.25,-0.32l0.53,-0.6l0.27,-0.29l0.28,-0.29l0.56,-0.57l0.28,-0.29l0.29,-0.27l0.3,-0.26l0.29,-0.28l0.62,-0.51l0.31,-0.24l0.32,-0.27l0.31,-0.24l0.33,-0.24l0.66,-0.45l0.33,-0.22l3.5,-2.29l32.9,0l3.51,2.29l0.34,0.22zm-24,14.88l-12.05,0l0,3.95l12.05,0l0,12.05l3.95,0l0,-12.05l7.67,0l0.18,-0.33l0.28,-0.49l0.57,-0.97l0.61,-0.95l0.3,-0.48l0.32,-0.47l0.19,-0.26l-10.12,0l0,-12.05l-3.95,0l0,12.05zm42.04,-37.65l0.48,0.05l0.48,0.07l0.47,0.08l0.48,0.09l0.47,0.1l0.48,0.13l0.45,0.14l0.47,0.15l0.92,0.37l3.23,1.4l0.53,0.23l0.53,0.2l0.54,0.18l0.55,0.16l0.54,0.15l0.56,0.12l0.54,0.12l0.56,0.08l0.55,0.07l0.56,0.05l0.56,0.04l0.56,0.01l0.56,-0.01l0.56,-0.02l0.56,-0.05l0.56,-0.06l0.56,-0.08l0.55,-0.1l0.55,-0.11l0.55,-0.14l0.55,-0.15l0.53,-0.17l0.54,-0.2l0.53,-0.21l0.52,-0.23l0.52,-0.24l0.6,-0.31l0.51,-0.24l0.5,-0.22l0.51,-0.2l0.53,-0.19l0.52,-0.17l1.06,-0.27l0.53,-0.1l0.54,-0.1l0.54,-0.06l0.55,-0.06l0.53,-0.04l0.55,-0.01l0.54,0l0.55,0.03l0.53,0.03l0.55,0.07l0.54,0.08l0.54,0.09l0.53,0.11l0.53,0.14l0.53,0.15l0.52,0.17l0.52,0.2l0.51,0.21l0.51,0.23l8.4,3.97l-1.6,1.77l-0.5,0.57l-0.49,0.57l-0.48,0.6l-0.46,0.59l-0.45,0.61l-0.44,0.61l-0.43,0.63l-0.41,0.63l-0.39,0.64l-0.39,0.65l-0.37,0.65l-0.35,0.68l-0.34,0.66l-0.34,0.69l-0.3,0.68l-0.3,0.69l-0.29,0.69l-0.27,0.71l-0.25,0.71l-0.24,0.72l-0.23,0.72l-0.21,0.73l-0.19,0.73l-0.18,0.74l-0.16,0.74l-0.09,0.43l-38.9,0l-0.33,-1.08l-0.22,-0.7l-0.24,-0.7l-0.25,-0.69l-0.26,-0.69l-0.27,-0.67l-0.6,-1.35l-0.32,-0.65l-0.33,-0.66l-0.34,-0.65l-0.36,-0.64l-0.36,-0.63l-0.39,-0.62l-0.39,-0.62l-0.41,-0.61l-0.85,-1.19l-0.44,-0.58l-0.46,-0.57l-0.47,-0.57l-0.48,-0.56l-0.98,-1.08l-0.52,-0.52l-0.52,-0.53l-0.54,-0.5l-1.92,-1.78l8.84,-4.3l0.44,-0.21l0.46,-0.19l0.46,-0.17l0.45,-0.16l0.47,-0.15l0.47,-0.13l0.47,-0.11l0.47,-0.1l0.48,-0.08l0.96,-0.12l0.48,-0.03l0.48,-0.01l0.48,0l0.49,0.01l0.48,0.02zm-49.96,-2.72l0.51,0.06l0.49,0.08l0.49,0.1l0.49,0.13l0.49,0.15l0.48,0.17l0.47,0.19l2.46,1.08l0.56,0.22l0.56,0.2l0.56,0.17l0.57,0.15l0.57,0.11l0.58,0.09l0.59,0.07l0.58,0.04l0.58,0.01l0.59,-0.01l0.58,-0.05l0.58,-0.07l0.57,-0.09l0.57,-0.12l0.58,-0.15l0.56,-0.17l0.56,-0.21l0.54,-0.23l0.54,-0.25l0.46,-0.23l0.52,-0.25l0.54,-0.22l0.54,-0.19l0.55,-0.17l0.55,-0.14l0.56,-0.11l0.56,-0.08l0.56,-0.06l0.57,-0.04l0.56,-0.01l0.57,0.03l0.56,0.04l0.56,0.07l0.56,0.1l0.56,0.13l0.55,0.16l0.55,0.18l0.53,0.21l0.53,0.23l2.35,1.11l-0.41,0.43l-0.81,0.94l-0.77,0.96l-0.74,1l-0.7,1.02l-0.67,1.06l-0.62,1.08l-0.58,1.1l-0.55,1.14l-0.5,1.15l-0.46,1.18l-0.41,1.21l-0.37,1.22l-0.33,1.24l-0.17,0.79l-25.41,0l-0.03,-0.09l-0.24,-0.73l-0.25,-0.73l-0.27,-0.71l-0.29,-0.71l-0.32,-0.69l-0.33,-0.69l-0.34,-0.67l-0.37,-0.68l-0.39,-0.65l-0.4,-0.65l-0.42,-0.63l-0.45,-0.63l-0.45,-0.6l-0.47,-0.6l-0.49,-0.59l-0.51,-0.57l-0.52,-0.56l-0.54,-0.54l-0.56,-0.54l-1.46,-1.35l6.73,-3.26l0.46,-0.22l0.48,-0.2l0.48,-0.16l0.48,-0.14l0.49,-0.13l0.49,-0.1l0.5,-0.07l0.49,-0.06l0.51,-0.03l0.5,-0.01l0.5,0.01l0.5,0.03z"/>
  </defs>
  <defs>
   <path id="svg_153" d="m144.14,176l-12.04,-12.03l-12.03,12.03l-12.04,-12.03l-12.03,12.03l-12.03,-12.03l-12.04,12.03l-12.03,-12.03l-12.04,12.03l-12.03,-12.03l-12.04,12.03l0,-160l12.04,12.04l12.03,-12.04l12.04,12.04l12.03,-12.04l12.03,12.04l12.04,-12.04l12.03,12.04l12.04,-12.04l12.03,12.04l12.04,-12.04l12.03,12.04l12.04,-12.04l-0.01,160l-12.03,-12.03l-12.03,12.03z"/>
   <clipPath id="svg_152">
    <use x="130.086638" y="-13.372303" id="svg_155" xlink:href="#svg_153"/>
   </clipPath>
   <path id="svg_151" d="m87.54,59.41l3.33,-5.01l-32.68,0l-3.33,5.01c3.4,0 5.29,0 5.67,0c5.75,0 11.05,0.45 13.17,5.25c-1.03,0 -6.2,0 -15.51,0l-3.33,5.01c11.68,0 18.17,0 19.47,0c0,0.01 0,0.03 0,0.04c0,3.6 -3,9.12 -12.88,9.12c-0.32,0 -1.91,0 -4.78,0l0.01,4.68l19.15,23.93l8.52,0c-11.89,-14.85 -18.49,-23.11 -19.82,-24.76c8.16,-0.44 15.81,-5 16.92,-13.01c0.4,0 2.43,0 6.09,0l3.33,-5.01c-5.71,0 -8.88,0 -9.51,0c-0.38,-1.93 -1.22,-3.8 -2.53,-5.25c1.16,0 4.07,0 8.71,0z"/>
   <mask maskUnits="userSpaceOnUse" height="57.04" width="40.01" y="52.4" x="52.86" id="svg_150">
    <rect id="svg_156" fill="white" height="57.04" width="40.01" y="52.4" x="52.86"/>
    <use id="svg_157" fill="black" xlink:href="#svg_151"/>
   </mask>
   <path id="svg_149" d="m101.32,138.93l0,-5.56l38.3,0l0,5.56l-38.3,0zm-49.1,0l0,-5.56l38.29,0l0,5.56l-38.29,0zm0,-14.01l0,-5.56l38.29,0l0,5.56l-38.29,0zm49.1,0l0,-5.56l38.3,0l0,5.56l-38.3,0z"/>
   <mask maskUnits="userSpaceOnUse" height="23.57" width="91.4" y="117.36" x="50.22" id="svg_148">
    <rect id="svg_158" fill="white" height="23.57" width="91.4" y="117.36" x="50.22"/>
    <use id="svg_159" fill="black" xlink:href="#svg_149"/>
   </mask>
   <path id="svg_147" d="m101.32,78.14l38.3,0l0,5.56l-38.3,0l0,-5.56z"/>
   <mask maskUnits="userSpaceOnUse" height="9.56" width="42.29" y="76.14" x="99.32" id="svg_146">
    <rect id="svg_160" fill="white" height="9.56" width="42.29" y="76.14" x="99.32"/>
    <use id="svg_161" fill="black" xlink:href="#svg_147"/>
   </mask>
  </defs>
  <defs>
   <path id="svg_230" d="m190,100c0,49.68 -40.32,90 -90,90c-49.67,0 -90,-40.32 -90,-90c0,-49.67 40.33,-90 90,-90c49.68,0 90,40.33 90,90z"/>
   <mask maskUnits="userSpaceOnUse" height="192" width="192" y="4" x="4" id="svg_229">
    <rect id="svg_232" fill="white" height="192" width="192" y="4" x="4"/>
    <use id="svg_233" fill="black" xlink:href="#svg_230"/>
   </mask>
   <path id="svg_228" d="m185,100c0,46.92 -38.08,85 -85,85c-46.91,0 -85,-38.08 -85,-85c0,-46.91 38.09,-85 85,-85c46.92,0 85,38.09 85,85z"/>
   <mask maskUnits="userSpaceOnUse" height="182" width="182" y="9" x="9" id="svg_227">
    <rect id="svg_234" fill="white" height="182" width="182" y="9" x="9"/>
    <use id="svg_235" fill="black" xlink:href="#svg_228"/>
   </mask>
   <path id="svg_226" d="m9.3,40.63l0,8.4l0,0l0,-8.4z"/>
   <path id="svg_225" d="m5.1,44.83l8.4,0"/>
   <path id="svg_224" d="m29.85,15l0,6l0,0l0,-6z"/>
   <path id="svg_223" d="m26.85,18l6,0"/>
   <path id="svg_222" d="m173.32,174.29l0,7l0,0l0,-7z"/>
   <path id="svg_221" d="m169.82,177.79l7,0"/>
   <path id="svg_220" d="m194.2,149.04l0,8.4l0,0l0,-8.4z"/>
   <path id="svg_219" d="m190,153.24l8.4,0"/>
   <path id="svg_218" d="m25.58,34.09c0,1.1 -0.9,2 -2,2c-1.11,0 -2,-0.9 -2,-2c0,-1.11 0.89,-2 2,-2c1.1,0 2,0.89 2,2z"/>
   <path id="svg_217" d="m11.96,7.34c0,1.47 -1.19,2.66 -2.66,2.66c-1.47,0 -2.67,-1.19 -2.67,-2.66c0,-1.47 1.2,-2.67 2.67,-2.67c1.47,0 2.66,1.2 2.66,2.67z"/>
   <path id="svg_216" d="m7.21,24.73l-0.39,2.44l-2.06,-2.06l-2.06,-2.06l2.44,-0.38l2.45,-0.39l-0.38,2.45z"/>
   <path id="svg_215" d="m193.33,188.47l-2.44,-0.39l2.06,-2.06l2.06,-2.06l0.39,2.44l0.38,2.45l-2.45,-0.38z"/>
   <clipPath id="svg_214">
    <use x="41.773675" y="50.100408" id="svg_236" xlink:href="#svg_215"/>
   </clipPath>
   <path id="svg_213" d="m191.83,172.4c0,0.82 -0.67,1.5 -1.5,1.5c-0.83,0 -1.5,-0.68 -1.5,-1.5c0,-0.83 0.67,-1.5 1.5,-1.5c0.83,0 1.5,0.67 1.5,1.5z"/>
   <clipPath id="svg_212">
    <use x="41.773675" y="50.100408" id="svg_237" xlink:href="#svg_213"/>
   </clipPath>
   <path id="svg_211" d="m155.91,186.13l-3.72,0.32l0.36,4.08l-3.8,0.34l0.33,3.74"/>
   <path id="svg_210" d="m55.86,11.85l-1.51,-3.41l-3.75,1.67l-1.54,-3.48l-3.44,1.53"/>
   <path id="svg_209" d="m25,8.5c0,0.82 -0.67,1.5 -1.5,1.5c-0.83,0 -1.5,-0.68 -1.5,-1.5c0,-0.83 0.67,-1.5 1.5,-1.5c0.83,0 1.5,0.67 1.5,1.5z"/>
   <clipPath id="svg_208">
    <use x="41.773675" y="50.100408" id="svg_238" xlink:href="#svg_209"/>
   </clipPath>
  </defs>
  <defs transform="translate(-1.2501212358474731,0.2500242292881012) translate(-2.5002424716949463,0.5000484585762024) translate(28.25273895263672,19.751914978027344) translate(1.7501696348190308,0) translate(0.2500242292881012,0) translate(25.002424240112305,10.751042366027832) translate(77.50751495361328,7.50072717666626) translate(-32.25312805175781,-17.251672744750977) translate(-11.751139640808105,-4.000387668609619) translate(-20.752012252807617,2.250218152999878) translate(-16.751625061035156,-1.7501696348190308) translate(-34.50334548950195,11.501114845275879) translate(0,0.2500242292881012) translate(-1.0000969171524048,0) translate(-19.251867294311523,-4.000387668609619) translate(16.001550674438477,-1.500145435333252) translate(-5.500533103942871,0.5000484585762024) translate(10.751042366027832,-0.2500242292881012) translate(-10.000969886779785,0.2500242292881012) translate(6.750654697418213,0.750072717666626) translate(-10.250993728637695,-0.5000484585762024) translate(19.001842498779297,0) translate(-16.001550674438477,2.0001938343048096) translate(12.001163482666016,-6.750654697418213) translate(3.5003392696380615,17.751720428466797) translate(-14.75143051147461,-44.00426483154297) translate(0.750072717666626,24.00232696533203) translate(3.5003392696380615,11.251091003417969) translate(0,-0.2500242292881012) ">
   <path id="svg_307" d="m144.54,87.61l0.43,0.3l0.44,0.31l0.42,0.31l0.83,0.65l0.41,0.33l0.4,0.33l0.4,0.34l0.39,0.35l0.4,0.36l0.38,0.36l0.38,0.36l0.37,0.38l0.71,0.75l0.37,0.39l0.68,0.8l0.34,0.4l0.32,0.4l0.33,0.42l0.63,0.84l0.59,0.87l0.29,0.43l0.56,0.88l0.27,0.46l0.77,1.38l0.48,0.94l0.22,0.47l0.22,0.49l0.22,0.47l0.2,0.5l0.2,0.48l0.22,0.57l0.21,0.58l0.21,0.58l0.39,1.16l0.17,0.58l0.32,1.18l0.15,0.58l0.15,0.61l0.12,0.58l0.24,1.19l0.1,0.61l0.1,0.59l0.08,0.61l0.08,0.59l0.06,0.61l0.11,1.21l0.04,0.6l0.03,0.62l0.03,1.2l0,0.61l-0.01,0.61l-0.01,0.61l-0.03,0.61l-0.03,0.6l-0.05,0.61l-0.05,0.6l-0.14,1.21l-0.08,0.61l-0.18,1.21l-0.12,0.6l-0.12,0.6l-0.13,0.6l-0.14,0.59l-0.45,1.9l-0.12,0.5l-0.15,0.49l-0.16,0.47l-0.17,0.48l-0.39,0.93l-0.45,0.86l-0.24,0.44l-0.27,0.42l-0.27,0.41l-0.29,0.39l-0.29,0.39l-0.31,0.38l-0.32,0.36l-0.33,0.36l-0.36,0.34l-0.34,0.33l-0.37,0.32l-0.37,0.31l-0.39,0.3l-0.4,0.28l-0.4,0.28l-0.41,0.25l-0.43,0.24l-0.43,0.23l-0.43,0.21l-0.45,0.21l-0.91,0.37l-0.94,0.29l-0.48,0.13l-0.48,0.11l-0.49,0.09l-0.49,0.07l-0.51,0.07l-0.5,0.05l-0.5,0.02l-0.52,0.01l-22.63,0.11l-7.21,0l-22.63,-0.11l-0.51,-0.01l-0.51,-0.03l-0.51,-0.04l-0.98,-0.14l-0.49,-0.1l-0.49,-0.11l-0.47,-0.12l-0.47,-0.15l-0.47,-0.16l-0.47,-0.17l-0.44,-0.18l-0.46,-0.21l-0.43,-0.21l-0.43,-0.23l-0.42,-0.24l-0.42,-0.25l-0.4,-0.28l-0.39,-0.28l-0.39,-0.3l-0.38,-0.31l-0.36,-0.32l-0.36,-0.33l-0.34,-0.34l-0.33,-0.36l-0.32,-0.36l-0.31,-0.38l-0.3,-0.39l-0.28,-0.4l-0.28,-0.41l-0.26,-0.41l-0.25,-0.44l-0.23,-0.43l-0.22,-0.45l-0.19,-0.45l-0.2,-0.47l-0.17,-0.47l-0.16,-0.47l-0.15,-0.5l-0.11,-0.49l-0.47,-1.9l-0.14,-0.59l-0.12,-0.6l-0.12,-0.6l-0.11,-0.6l-0.27,-1.82l-0.14,-1.21l-0.09,-1.21l-0.04,-0.6l-0.02,-0.61l-0.02,-0.62l0,-1.21l0.01,-0.59l0.02,-0.62l0.02,-0.61l0.05,-0.6l0.1,-1.21l0.07,-0.61l0.07,-0.59l0.09,-0.61l0.09,-0.59l0.11,-0.61l0.24,-1.19l0.12,-0.59l0.15,-0.6l0.14,-0.59l0.16,-0.58l0.34,-1.17l0.39,-1.16l0.2,-0.58l0.21,-0.58l0.23,-0.57l0.19,-0.49l0.21,-0.49l0.2,-0.48l0.23,-0.48l0.23,-0.47l0.47,-0.94l0.26,-0.47l0.25,-0.47l0.53,-0.9l0.57,-0.88l0.29,-0.44l0.29,-0.44l0.3,-0.42l0.32,-0.42l0.31,-0.43l0.65,-0.81l0.33,-0.41l0.35,-0.39l0.34,-0.4l0.35,-0.39l1.1,-1.13l0.38,-0.36l0.37,-0.36l0.39,-0.36l1.2,-1.03l0.41,-0.32l0.42,-0.33l0.42,-0.32l0.42,-0.31l0.44,-0.31l0.43,-0.3l0.45,-0.3l5.53,-3.62l41.36,0l5.55,3.62l0.45,0.3zm-41.51,7.03l4.5,0l0.34,0l0.34,0.01l0.33,0l0.34,0.01l0.33,0l0.34,0.02l0.33,0.01l0.32,0.02l0.32,0.02l0.32,0.03l0.32,0.03l0.31,0.03l0.31,0.04l0.31,0.04l0.3,0.05l0.3,0.06l0.29,0.06l0.29,0.07l0.28,0.07l0.28,0.08l0.27,0.09l0.27,0.1l0.26,0.1l0.25,0.11l0.25,0.12l0.24,0.13l0.24,0.14l0.23,0.15l0.22,0.15l0.21,0.17l0.21,0.17l0.2,0.19l0.19,0.2l0.18,0.2l0.18,0.22l0.17,0.23l0.15,0.25l0.15,0.25l0.14,0.27l0.13,0.28l-12.3,0l-2.64,3.97l15.44,0l0,0.03l0,0.22l-0.02,0.22l-0.02,0.22l-0.03,0.24l-0.05,0.23l-0.05,0.24l-0.06,0.24l-0.08,0.24l-0.09,0.24l-0.09,0.25l-0.11,0.24l-0.12,0.24l-0.14,0.25l-0.14,0.24l-0.16,0.24l-0.18,0.23l-0.18,0.23l-0.2,0.23l-0.22,0.23l-0.23,0.22l-0.24,0.22l-0.26,0.2l-0.27,0.21l-0.29,0.19l-0.31,0.19l-0.32,0.18l-0.34,0.17l-0.35,0.16l-0.37,0.16l-0.39,0.14l-0.41,0.13l-0.42,0.12l-0.44,0.11l-0.46,0.09l-0.48,0.08l-0.5,0.07l-0.52,0.06l-0.54,0.04l-0.56,0.02l-0.57,0.01l-3.8,-0.01l0.01,3.72l15.19,18.99l6.76,0l-15.72,-19.65l0.49,-0.03l0.48,-0.04l0.48,-0.06l0.48,-0.07l0.47,-0.08l0.47,-0.09l0.47,-0.11l0.46,-0.11l0.45,-0.13l0.45,-0.14l0.45,-0.16l0.44,-0.16l0.43,-0.18l0.42,-0.18l0.42,-0.2l0.41,-0.21l0.4,-0.22l0.39,-0.24l0.38,-0.24l0.37,-0.26l0.36,-0.26l0.35,-0.28l0.34,-0.29l0.32,-0.3l0.32,-0.31l0.3,-0.32l0.28,-0.34l0.28,-0.34l0.26,-0.36l0.24,-0.36l0.23,-0.38l0.22,-0.39l0.2,-0.4l0.18,-0.4l0.17,-0.42l0.15,-0.43l0.13,-0.44l0.11,-0.45l0.09,-0.47l0.08,-0.47l4.83,0l2.65,-3.97l-7.55,0l-0.02,-0.12l-0.03,-0.11l-0.02,-0.12l-0.03,-0.11l-0.03,-0.11l-0.03,-0.12l-0.03,-0.11l-0.04,-0.11l-0.03,-0.12l-0.04,-0.11l-0.03,-0.11l-0.04,-0.11l-0.04,-0.11l-0.04,-0.11l-0.04,-0.11l-0.05,-0.11l-0.04,-0.11l-0.05,-0.11l-0.05,-0.1l-0.05,-0.11l-0.05,-0.1l-0.05,-0.11l-0.05,-0.1l-0.06,-0.11l-0.05,-0.1l-0.06,-0.1l-0.06,-0.1l-0.06,-0.1l-0.06,-0.1l-0.07,-0.1l-0.06,-0.09l-0.07,-0.1l-0.06,-0.09l-0.07,-0.1l-0.07,-0.09l-0.07,-0.09l-0.08,-0.09l-0.07,-0.09l-0.08,-0.09l-0.07,-0.09l6.9,0l2.65,-3.97l-25.93,0l-2.64,3.97zm-18.68,-17.78l0.34,0.23l0.32,0.22l0.33,0.24l0.63,0.51l0.32,0.25l0.29,0.25l0.31,0.25l0.3,0.28l0.3,0.26l0.28,0.27l0.57,0.57l0.55,0.58l0.28,0.29l0.26,0.3l0.26,0.31l0.25,0.31l0.24,0.31l0.01,0l-2.48,1.62l-0.48,0.31l-0.46,0.32l-0.47,0.33l-0.46,0.34l-0.45,0.33l-0.45,0.37l-0.44,0.34l-0.85,0.73l-0.43,0.38l-0.42,0.39l-0.41,0.38l-0.4,0.4l-0.79,0.8l-0.39,0.42l-0.39,0.41l-0.36,0.42l-0.38,0.43l-0.35,0.44l-0.7,0.88l-0.33,0.45l-0.35,0.45l-0.32,0.46l-0.32,0.47l-0.3,0.48l-0.61,0.95l-0.57,0.97l-0.28,0.49l-0.27,0.5l-0.51,1.01l-0.26,0.51l-0.22,0.52l-0.46,1.05l-0.21,0.53l-0.24,0.61l-0.23,0.62l-0.21,0.62l-0.22,0.63l-0.39,1.25l-0.17,0.62l-0.18,0.64l-0.15,0.64l-0.16,0.63l-0.14,0.64l-0.25,1.29l-0.11,0.64l-0.11,0.65l-0.09,0.64l-0.08,0.65l-0.07,0.64l-0.11,1.31l-0.05,0.65l-0.02,0.65l-0.02,0.66l-0.03,0.65l0,0.65l0.02,0.07l-3.81,0.01l-5.49,0l-17.22,-0.06l-0.39,-0.02l-0.39,-0.02l-0.37,-0.03l-0.38,-0.05l-0.38,-0.06l-0.37,-0.08l-0.37,-0.08l-0.37,-0.09l-0.35,-0.11l-0.71,-0.25l-0.68,-0.3l-0.34,-0.16l-0.32,-0.18l-0.32,-0.17l-0.32,-0.2l-0.3,-0.22l-0.3,-0.2l-0.3,-0.23l-0.28,-0.24l-0.28,-0.24l-0.27,-0.25l-0.27,-0.26l-0.25,-0.28l-0.24,-0.27l-0.24,-0.29l-0.23,-0.3l-0.2,-0.3l-0.22,-0.31l-0.39,-0.64l-0.17,-0.33l-0.17,-0.35l-0.15,-0.34l-0.15,-0.35l-0.12,-0.36l-0.13,-0.36l-0.1,-0.38l-0.09,-0.38l-0.36,-1.44l-0.2,-0.91l-0.09,-0.46l-0.08,-0.46l-0.21,-1.37l-0.1,-0.92l-0.04,-0.46l-0.03,-0.47l-0.04,-0.46l-0.01,-0.47l-0.01,-0.45l-0.01,-0.47l0,-0.46l0.01,-0.46l0.01,-0.46l0.03,-0.46l0.03,-0.46l0.08,-0.92l0.05,-0.46l0.05,-0.46l0.14,-0.91l0.08,-0.46l0.18,-0.9l0.09,-0.46l0.12,-0.45l0.11,-0.45l0.12,-0.45l0.12,-0.44l0.14,-0.45l0.15,-0.43l0.15,-0.45l0.15,-0.43l0.16,-0.45l0.17,-0.43l0.15,-0.38l0.32,-0.73l0.34,-0.73l0.36,-0.71l0.2,-0.37l0.19,-0.34l0.4,-0.69l0.43,-0.67l0.22,-0.34l0.22,-0.34l0.23,-0.32l0.48,-0.64l0.49,-0.61l0.25,-0.32l0.53,-0.6l0.27,-0.29l0.28,-0.29l0.56,-0.57l0.28,-0.29l0.29,-0.27l0.3,-0.26l0.29,-0.28l0.62,-0.51l0.31,-0.24l0.32,-0.27l0.31,-0.24l0.33,-0.24l0.66,-0.45l0.33,-0.22l3.5,-2.29l32.9,0l3.51,2.29l0.34,0.22zm-24,14.88l-12.05,0l0,3.95l12.05,0l0,12.05l3.95,0l0,-12.05l7.67,0l0.18,-0.33l0.28,-0.49l0.57,-0.97l0.61,-0.95l0.3,-0.48l0.32,-0.47l0.19,-0.26l-10.12,0l0,-12.05l-3.95,0l0,12.05zm42.04,-37.65l0.48,0.05l0.48,0.07l0.47,0.08l0.48,0.09l0.47,0.1l0.48,0.13l0.45,0.14l0.47,0.15l0.92,0.37l3.23,1.4l0.53,0.23l0.53,0.2l0.54,0.18l0.55,0.16l0.54,0.15l0.56,0.12l0.54,0.12l0.56,0.08l0.55,0.07l0.56,0.05l0.56,0.04l0.56,0.01l0.56,-0.01l0.56,-0.02l0.56,-0.05l0.56,-0.06l0.56,-0.08l0.55,-0.1l0.55,-0.11l0.55,-0.14l0.55,-0.15l0.53,-0.17l0.54,-0.2l0.53,-0.21l0.52,-0.23l0.52,-0.24l0.6,-0.31l0.51,-0.24l0.5,-0.22l0.51,-0.2l0.53,-0.19l0.52,-0.17l1.06,-0.27l0.53,-0.1l0.54,-0.1l0.54,-0.06l0.55,-0.06l0.53,-0.04l0.55,-0.01l0.54,0l0.55,0.03l0.53,0.03l0.55,0.07l0.54,0.08l0.54,0.09l0.53,0.11l0.53,0.14l0.53,0.15l0.52,0.17l0.52,0.2l0.51,0.21l0.51,0.23l8.4,3.97l-1.6,1.77l-0.5,0.57l-0.49,0.57l-0.48,0.6l-0.46,0.59l-0.45,0.61l-0.44,0.61l-0.43,0.63l-0.41,0.63l-0.39,0.64l-0.39,0.65l-0.37,0.65l-0.35,0.68l-0.34,0.66l-0.34,0.69l-0.3,0.68l-0.3,0.69l-0.29,0.69l-0.27,0.71l-0.25,0.71l-0.24,0.72l-0.23,0.72l-0.21,0.73l-0.19,0.73l-0.18,0.74l-0.16,0.74l-0.09,0.43l-38.9,0l-0.33,-1.08l-0.22,-0.7l-0.24,-0.7l-0.25,-0.69l-0.26,-0.69l-0.27,-0.67l-0.6,-1.35l-0.32,-0.65l-0.33,-0.66l-0.34,-0.65l-0.36,-0.64l-0.36,-0.63l-0.39,-0.62l-0.39,-0.62l-0.41,-0.61l-0.85,-1.19l-0.44,-0.58l-0.46,-0.57l-0.47,-0.57l-0.48,-0.56l-0.98,-1.08l-0.52,-0.52l-0.52,-0.53l-0.54,-0.5l-1.92,-1.78l8.84,-4.3l0.44,-0.21l0.46,-0.19l0.46,-0.17l0.45,-0.16l0.47,-0.15l0.47,-0.13l0.47,-0.11l0.47,-0.1l0.48,-0.08l0.96,-0.12l0.48,-0.03l0.48,-0.01l0.48,0l0.49,0.01l0.48,0.02zm-49.96,-2.72l0.51,0.06l0.49,0.08l0.49,0.1l0.49,0.13l0.49,0.15l0.48,0.17l0.47,0.19l2.46,1.08l0.56,0.22l0.56,0.2l0.56,0.17l0.57,0.15l0.57,0.11l0.58,0.09l0.59,0.07l0.58,0.04l0.58,0.01l0.59,-0.01l0.58,-0.05l0.58,-0.07l0.57,-0.09l0.57,-0.12l0.58,-0.15l0.56,-0.17l0.56,-0.21l0.54,-0.23l0.54,-0.25l0.46,-0.23l0.52,-0.25l0.54,-0.22l0.54,-0.19l0.55,-0.17l0.55,-0.14l0.56,-0.11l0.56,-0.08l0.56,-0.06l0.57,-0.04l0.56,-0.01l0.57,0.03l0.56,0.04l0.56,0.07l0.56,0.1l0.56,0.13l0.55,0.16l0.55,0.18l0.53,0.21l0.53,0.23l2.35,1.11l-0.41,0.43l-0.81,0.94l-0.77,0.96l-0.74,1l-0.7,1.02l-0.67,1.06l-0.62,1.08l-0.58,1.1l-0.55,1.14l-0.5,1.15l-0.46,1.18l-0.41,1.21l-0.37,1.22l-0.33,1.24l-0.17,0.79l-25.41,0l-0.03,-0.09l-0.24,-0.73l-0.25,-0.73l-0.27,-0.71l-0.29,-0.71l-0.32,-0.69l-0.33,-0.69l-0.34,-0.67l-0.37,-0.68l-0.39,-0.65l-0.4,-0.65l-0.42,-0.63l-0.45,-0.63l-0.45,-0.6l-0.47,-0.6l-0.49,-0.59l-0.51,-0.57l-0.52,-0.56l-0.54,-0.54l-0.56,-0.54l-1.46,-1.35l6.73,-3.26l0.46,-0.22l0.48,-0.2l0.48,-0.16l0.48,-0.14l0.49,-0.13l0.49,-0.1l0.5,-0.07l0.49,-0.06l0.51,-0.03l0.5,-0.01l0.5,0.01l0.5,0.03z"/>
  </defs>
  <g stroke="null" id="svg_362">
   <g stroke="null" transform="matrix(0.7624113170584438,0,0,0.9067856105485247,-8.765517746357464,3.470215822071845) " id="svg_361">
    <g stroke="null" id="svg_360">
     <g stroke="null" id="svg_359">
      <use stroke="null" x="0.041696" y="-30.908836" id="svg_358" fill="#ffffff" xlink:href="#svg_307"/>
     </g>
    </g>
   </g>
  </g>
  <g stroke="null" id="svg_313">
   <g stroke="null" transform="matrix(0.7448315183161331,0,0,0.839627442093142,-8.300237766552094,4.489836197378452) " id="svg_309">
    <g stroke="null" id="svg_310">
     <g stroke="null" id="svg_311">
      <use stroke="null" x="-0.833758" y="-26.916448" id="svg_312" fill="#037dca" xlink:href="#svg_307"/>
     </g>
    </g>
   </g>
  </g>
  <defs transform="translate(-1.2501212358474731,0.2500242292881012) translate(-2.5002424716949463,0.5000484585762024) translate(28.25273895263672,19.751914978027344) translate(1.7501696348190308,0) translate(0.2500242292881012,0) translate(25.002424240112305,10.751042366027832) translate(77.50751495361328,7.50072717666626) translate(-32.25312805175781,-17.251672744750977) translate(-11.751139640808105,-4.000387668609619) translate(-20.752012252807617,2.250218152999878) translate(-16.751625061035156,-1.7501696348190308) translate(-34.50334548950195,11.501114845275879) translate(0,0.2500242292881012) translate(-1.0000969171524048,0) translate(-19.251867294311523,-4.000387668609619) translate(16.001550674438477,-1.500145435333252) translate(-5.500533103942871,0.5000484585762024) translate(10.751042366027832,-0.2500242292881012) translate(-10.000969886779785,0.2500242292881012) translate(6.750654697418213,0.750072717666626) translate(-10.250993728637695,-0.5000484585762024) translate(19.001842498779297,0) translate(-16.001550674438477,2.0001938343048096) translate(12.001163482666016,-6.750654697418213) translate(3.5003392696380615,17.751720428466797) translate(-14.75143051147461,-44.00426483154297) translate(0.750072717666626,24.00232696533203) translate(3.5003392696380615,11.251091003417969) translate(0,-0.2500242292881012) ">
   <path id="svg_331" d="m144.14,176l-12.04,-12.03l-12.03,12.03l-12.04,-12.03l-12.03,12.03l-12.03,-12.03l-12.04,12.03l-12.03,-12.03l-12.04,12.03l-12.03,-12.03l-12.04,12.03l0,-160l12.04,12.04l12.03,-12.04l12.04,12.04l12.03,-12.04l12.03,12.04l12.04,-12.04l12.03,12.04l12.04,-12.04l12.03,12.04l12.04,-12.04l12.03,12.04l12.04,-12.04l-0.01,160l-12.03,-12.03l-12.03,12.03z"/>
   <clipPath id="svg_330">
    <use x="211.361976" y="218.12116" id="svg_333" xlink:href="#svg_331"/>
   </clipPath>
   <path id="svg_329" d="m87.54,59.41l3.33,-5.01l-32.68,0l-3.33,5.01c3.4,0 5.29,0 5.67,0c5.75,0 11.05,0.45 13.17,5.25c-1.03,0 -6.2,0 -15.51,0l-3.33,5.01c11.68,0 18.17,0 19.47,0c0,0.01 0,0.03 0,0.04c0,3.6 -3,9.12 -12.88,9.12c-0.32,0 -1.91,0 -4.78,0l0.01,4.68l19.15,23.93l8.52,0c-11.89,-14.85 -18.49,-23.11 -19.82,-24.76c8.16,-0.44 15.81,-5 16.92,-13.01c0.4,0 2.43,0 6.09,0l3.33,-5.01c-5.71,0 -8.88,0 -9.51,0c-0.38,-1.93 -1.22,-3.8 -2.53,-5.25c1.16,0 4.07,0 8.71,0z"/>
   <mask maskUnits="userSpaceOnUse" height="57.04" width="40.01" y="52.4" x="52.86" id="svg_328">
    <rect id="svg_334" fill="white" height="57.04" width="40.01" y="52.4" x="52.86"/>
    <use id="svg_335" fill="black" xlink:href="#svg_329"/>
   </mask>
   <path id="svg_327" d="m101.32,138.93l0,-5.56l38.3,0l0,5.56l-38.3,0zm-49.1,0l0,-5.56l38.29,0l0,5.56l-38.29,0zm0,-14.01l0,-5.56l38.29,0l0,5.56l-38.29,0zm49.1,0l0,-5.56l38.3,0l0,5.56l-38.3,0z"/>
   <mask maskUnits="userSpaceOnUse" height="23.57" width="91.4" y="117.36" x="50.22" id="svg_326">
    <rect id="svg_336" fill="white" height="23.57" width="91.4" y="117.36" x="50.22"/>
    <use id="svg_337" fill="black" xlink:href="#svg_327"/>
   </mask>
   <path id="svg_325" d="m101.32,78.14l38.3,0l0,5.56l-38.3,0l0,-5.56z"/>
   <mask maskUnits="userSpaceOnUse" height="9.56" width="42.29" y="76.14" x="99.32" id="svg_324">
    <rect id="svg_338" fill="white" height="9.56" width="42.29" y="76.14" x="99.32"/>
    <use id="svg_339" fill="black" xlink:href="#svg_325"/>
   </mask>
  </defs>
 </g>
</svg>