<svg width="192" height="192" xmlns="http://www.w3.org/2000/svg" xmlns:xlink="http://www.w3.org/1999/xlink" preserveAspectRatio="xMidYMid meet">
 <defs>
  <path id="bhK7zjqhC" d="m148.64,132.14l0.06,0.06l0.06,0.06l0.05,0.06l0.06,0.06l0.05,0.06l0.06,0.06l0.05,0.06l0.06,0.07l0.05,0.06l0.06,0.06l0.05,0.06l0.05,0.07l0.05,0.06l0.06,0.06l0.05,0.07l0.05,0.06l0.05,0.07l0.05,0.06l0.05,0.07l0.05,0.06l0.04,0.07l0.05,0.07l0.05,0.06l0.05,0.07l0.04,0.07l0.05,0.07l0.05,0.06l0.02,0.04l0.02,0.03l0.02,0.03l0.01,0.03l0.02,0.03l0.02,0.03l0.02,0.04l0.02,0.03l0.02,0.03l0.01,0.03l0.02,0.03l0.02,0.04l0.01,0.03l0.02,0.03l0.02,0.03l0.01,0.04l0.02,0.03l0.02,0.03l0.03,0.07l0.02,0.03l0.01,0.03l0.02,0.04l0.02,0.03l0.01,0.03l0.02,0.03l0.02,0.04l0.02,0.03l0.02,0.04l0.02,0.04l0.02,0.04l0.02,0.04l0.02,0.03l0.03,0.04l0.02,0.04l0.02,0.04l0.02,0.04l0.02,0.04l0.03,0.04l0.02,0.03l0.02,0.04l0.02,0.04l0.02,0.04l0.02,0.04l0.02,0.04l0.03,0.04l0.02,0.04l0.02,0.04l0.02,0.04l0.02,0.04l0.02,0.04l0.02,0.04l0.01,0.04l0.02,0.04l0.02,0.04l0.02,0.04l0.02,0.04l0.01,0.04l0.02,0.05l0.01,0.04l0.02,0.04l0.01,0.04l0.02,0.04l0.01,0.05l0.01,0.04l0.02,0.04l0.01,0.04l0.01,0.05l0.02,0.04l0.01,0.04l0.01,0.04l0.01,0.05l0.02,0.04l0.01,0.04l0.01,0.04l0.01,0.05l0.01,0.04l0.01,0.04l0.02,0.04l0.01,0.05l0.01,0.04l0.01,0.04l0.01,0.04l0.02,0.05l0.01,0.03l0.01,0.04l0.01,0.03l0.01,0.04l0.01,0.03l0.01,0.04l0.02,0.03l0.01,0.04l0.01,0.03l0.01,0.04l0.01,0.03l0.01,0.04l0.02,0.03l0.01,0.04l0.01,0.03l0.01,0.04l0.01,0.03l0.01,0.04l0.01,0.04l0.01,0.03l0.01,0.04l0.01,0.03l0.01,0.04l0.01,0.03l0.01,0.04l0.01,0.04l0,0.03l0.01,0.04l0.03,0.16l0.03,0.17l0.03,0.16l0.02,0.16l0.02,0.16l0.02,0.17l0.02,0.16l0.01,0.16l0.02,0.17l0.01,0.16l0.01,0.17l0,0.16l0,0.16l0.01,0.17l-0.01,0.16l0,0.17l0,0.16l-0.01,0.16l-0.01,0.17l-0.02,0.16l-0.01,0.16l-0.02,0.17l-0.02,0.16l-0.02,0.16l-0.02,0.17l-0.03,0.16l-0.03,0.16l-0.03,0.16l-0.01,0.04l0,0.04l-0.01,0.03l-0.01,0.04l-0.01,0.03l-0.01,0.04l-0.01,0.04l-0.01,0.03l-0.01,0.04l-0.01,0.03l-0.01,0.04l-0.01,0.03l-0.01,0.04l-0.02,0.03l-0.01,0.04l-0.01,0.03l-0.01,0.04l-0.03,0.1l-0.02,0.04l-0.01,0.03l-0.01,0.04l-0.01,0.03l-0.01,0.04l-0.01,0.03l-0.01,0.04l-0.01,0.03l-0.02,0.05l-0.01,0.04l-0.01,0.04l-0.01,0.04l-0.01,0.05l-0.02,0.04l-0.01,0.04l-0.01,0.05l-0.01,0.04l-0.01,0.04l-0.01,0.04l-0.02,0.05l-0.01,0.04l-0.01,0.04l-0.01,0.04l-0.02,0.05l-0.01,0.04l-0.01,0.04l-0.02,0.04l-0.01,0.05l-0.01,0.04l-0.02,0.04l-0.01,0.04l-0.02,0.04l-0.01,0.05l-0.02,0.04l-0.01,0.04l-0.02,0.04l-0.02,0.04l-0.02,0.04l-0.01,0.04l-0.02,0.04l-0.02,0.04l-0.02,0.04l-0.02,0.04l-0.02,0.04l-0.02,0.04l-0.02,0.04l-0.02,0.04l-0.02,0.04l-0.02,0.04l-0.02,0.04l-0.03,0.03l-0.02,0.04l-0.02,0.04l-0.02,0.04l-0.02,0.04l-0.03,0.04l-0.04,0.07l-0.02,0.04l-0.02,0.04l-0.02,0.04l-0.03,0.04l-0.02,0.04l-0.02,0.04l-0.02,0.03l-0.01,0.03l-0.02,0.03l-0.02,0.04l-0.02,0.03l-0.01,0.03l-0.02,0.03l-0.02,0.04l-0.03,0.06l-0.01,0.04l-0.02,0.03l-0.02,0.03l-0.02,0.03l-0.01,0.04l-0.02,0.03l-0.02,0.03l-0.01,0.03l-0.02,0.04l-0.02,0.03l-0.02,0.03l-0.02,0.03l-0.01,0.04l-0.02,0.03l-0.02,0.03l-0.02,0.03l-0.02,0.03l-0.02,0.04l-0.1,0.13l-0.09,0.14l-0.1,0.13l-0.1,0.13l-0.1,0.13l-0.1,0.13l-0.1,0.13l-0.11,0.13l-0.1,0.12l-0.11,0.12l-0.11,0.13l-0.11,0.12l-0.12,0.12l-0.11,0.11l-0.12,0.12l-0.12,0.11l-0.12,0.11l-0.12,0.11l-0.12,0.11l-0.13,0.11l-0.12,0.1l-0.13,0.11l-0.13,0.1l-0.13,0.1l-0.13,0.1l-0.14,0.09l-0.13,0.1l-0.14,0.09l-0.03,0.02l-0.03,0.02l-0.03,0.02l-0.03,0.02l-0.04,0.02l-0.03,0.02l-0.03,0.01l-0.03,0.02l-0.03,0.02l-0.04,0.02l-0.03,0.01l-0.03,0.02l-0.03,0.02l-0.04,0.02l-0.03,0.01l-0.03,0.02l-0.03,0.02l-0.04,0.01l-0.06,0.03l-0.04,0.02l-0.03,0.02l-0.03,0.01l-0.03,0.02l-0.04,0.02l-0.03,0.02l-0.03,0.01l-0.03,0.02l-0.04,0.02l-0.04,0.02l-0.04,0.02l-0.04,0.03l-0.04,0.02l-0.04,0.02l-0.04,0.02l-0.03,0.02l-0.04,0.03l-0.04,0.02l-0.04,0.02l-0.04,0.02l-0.04,0.02l-0.04,0.03l-0.03,0.02l-0.04,0.02l-0.04,0.02l-0.04,0.02l-0.04,0.02l-0.04,0.02l-0.04,0.02l-0.04,0.02l-0.04,0.02l-0.04,0.02l-0.04,0.02l-0.04,0.02l-0.04,0.02l-0.05,0.01l-0.04,0.02l-0.04,0.02l-0.04,0.01l-0.04,0.02l-0.04,0.01l-0.05,0.02l-0.04,0.01l-0.04,0.02l-0.04,0.01l-0.04,0.01l-0.05,0.02l-0.04,0.01l-0.04,0.01l-0.04,0.01l-0.05,0.02l-0.04,0.01l-0.04,0.01l-0.04,0.01l-0.05,0.01l-0.04,0.02l-0.04,0.01l-0.05,0.01l-0.04,0.01l-0.04,0.01l-0.04,0.02l-0.05,0.01l-0.04,0.01l-0.04,0.01l-0.04,0.01l-0.03,0.01l-0.04,0.01l-0.03,0.02l-0.04,0.01l-0.03,0.01l-0.04,0.01l-0.03,0.01l-0.04,0.01l-0.03,0.02l-0.04,0.01l-0.03,0.01l-0.04,0.01l-0.03,0.01l-0.04,0.01l-0.03,0.01l-0.04,0.01l-0.03,0.02l-0.04,0.01l-0.03,0.01l-0.04,0.01l-0.04,0.01l-0.03,0.01l-0.04,0l-0.03,0.01l-0.04,0.01l-0.04,0.01l-0.03,0.01l-0.17,0.03l-0.16,0.03l-0.16,0.02l-0.16,0.03l-0.17,0.02l-0.16,0.02l-0.16,0.01l-0.17,0.02l-0.16,0.01l-0.16,0.01l-0.17,0.01l-0.16,0.01l-0.17,0l-0.16,0l-0.16,0l-0.17,0l-0.16,-0.01l-0.16,-0.01l-0.17,-0.01l-0.16,-0.01l-0.17,-0.02l-0.16,-0.01l-0.16,-0.02l-0.16,-0.02l-0.17,-0.03l-0.16,-0.02l-0.16,-0.03l-0.16,-0.03l-0.04,-0.01l-0.04,-0.01l-0.03,-0.01l-0.04,-0.01l-0.04,-0.01l-0.03,-0.01l-0.04,-0.01l-0.03,-0.01l-0.04,-0.01l-0.03,-0.01l-0.04,-0.01l-0.04,-0.01l-0.03,-0.01l-0.04,-0.01l-0.03,-0.01l-0.04,-0.01l-0.03,-0.01l-0.04,-0.02l-0.07,-0.02l-0.03,-0.01l-0.04,-0.01l-0.03,-0.01l-0.04,-0.01l-0.03,-0.02l-0.04,-0.01l-0.03,-0.01l-0.04,-0.01l-0.04,-0.01l-0.04,-0.01l-0.04,-0.01l-0.05,-0.02l-0.04,-0.01l-0.04,-0.01l-0.05,-0.01l-0.04,-0.01l-0.04,-0.02l-0.04,-0.01l-0.05,-0.01l-0.04,-0.01l-0.04,-0.01l-0.04,-0.02l-0.05,-0.01l-0.04,-0.01l-0.04,-0.01l-0.04,-0.02l-0.05,-0.01l-0.04,-0.01l-0.04,-0.02l-0.04,-0.01l-0.04,-0.02l-0.05,-0.01l-0.04,-0.02l-0.04,-0.01l-0.04,-0.02l-0.04,-0.02l-0.04,-0.01l-0.05,-0.02l-0.04,-0.02l-0.04,-0.02l-0.04,-0.02l-0.04,-0.02l-0.04,-0.02l-0.04,-0.02l-0.04,-0.02l-0.04,-0.02l-0.03,-0.02l-0.04,-0.02l-0.04,-0.02l-0.04,-0.02l-0.04,-0.02l-0.04,-0.03l-0.04,-0.02l-0.04,-0.02l-0.04,-0.02l-0.03,-0.02l-0.04,-0.03l-0.04,-0.02l-0.04,-0.02l-0.04,-0.02l-0.04,-0.02l-0.04,-0.03l-0.04,-0.02l-0.03,-0.02l-0.04,-0.02l-0.03,-0.01l-0.03,-0.02l-0.03,-0.02l-0.04,-0.02l-0.03,-0.01l-0.03,-0.02l-0.04,-0.02l-0.06,-0.03l-0.03,-0.01l-0.04,-0.02l-0.03,-0.02l-0.03,-0.01l-0.03,-0.02l-0.04,-0.02l-0.03,-0.02l-0.03,-0.01l-0.03,-0.02l-0.04,-0.02l-0.03,-0.02l-0.03,-0.01l-0.03,-0.02l-0.03,-0.02l-0.04,-0.02l-0.03,-0.02l-0.03,-0.02l-0.03,-0.02l-0.07,-0.05l-0.07,-0.04l-0.06,-0.05l-0.07,-0.05l-0.07,-0.05l-0.06,-0.04l-0.07,-0.05l-0.07,-0.05l-0.06,-0.05l-0.07,-0.05l-0.06,-0.05l-0.07,-0.05l-0.06,-0.05l-0.07,-0.05l-0.06,-0.06l-0.06,-0.05l-0.06,-0.05l-0.07,-0.05l-0.06,-0.06l-0.06,-0.05l-0.06,-0.06l-0.06,-0.05l-0.06,-0.06l-0.06,-0.05l-0.06,-0.06l-0.06,-0.06l-0.06,-0.05l-0.06,-0.06l-29.48,-29.49l16.5,-16.5l29.48,29.49l0.06,0.05zm-23.99,-92.13l0.32,0.01l0.32,0.01l0.32,0.02l0.32,0.02l0.32,0.02l0.31,0.03l0.32,0.03l0.31,0.03l0.32,0.04l0.31,0.04l0.31,0.05l0.31,0.05l0.31,0.05l0.31,0.06l0.3,0.06l0.31,0.06l0.3,0.06l0.3,0.07l0.31,0.07l0.3,0.08l0.3,0.08l0.29,0.08l0.3,0.09l0.3,0.08l0.29,0.09l0.29,0.1l0.29,0.1l0.29,0.1l0.29,0.1l0.29,0.11l0.28,0.11l0.29,0.11l0.28,0.11l0.28,0.12l0.28,0.12l0.28,0.13l0.27,0.12l0.28,0.13l-20.98,20.99l13.2,13.19l20.98,-20.98l0.13,0.28l0.12,0.27l0.13,0.28l0.12,0.28l0.12,0.28l0.11,0.28l0.11,0.29l0.11,0.28l0.11,0.29l0.1,0.29l0.1,0.29l0.1,0.29l0.1,0.29l0.09,0.3l0.08,0.29l0.09,0.3l0.08,0.29l0.08,0.3l0.08,0.3l0.07,0.31l0.07,0.3l0.06,0.3l0.06,0.31l0.06,0.31l0.06,0.3l0.05,0.31l0.05,0.31l0.05,0.31l0.04,0.32l0.04,0.31l0.03,0.31l0.03,0.32l0.03,0.32l0.02,0.31l0.02,0.32l0.02,0.32l0.01,0.32l0.01,0.32l0.01,0.33l0,0.32l-0.02,1.16l-0.07,1.14l-0.12,1.13l-0.16,1.11l-0.2,1.1l-0.24,1.09l-0.29,1.07l-0.33,1.05l-0.36,1.04l-0.41,1.01l-0.44,1l-0.49,0.97l-0.51,0.95l-0.55,0.93l-0.59,0.91l-0.62,0.88l-0.65,0.85l-0.69,0.83l-0.72,0.81l-0.74,0.77l-0.77,0.75l-0.81,0.71l-0.83,0.69l-0.85,0.65l-0.88,0.62l-0.91,0.59l-0.93,0.55l-0.95,0.52l-0.98,0.48l-0.99,0.44l-1.02,0.41l-1.03,0.36l-1.05,0.33l-1.07,0.29l-1.09,0.24l-1.1,0.21l-1.11,0.15l-1.13,0.12l-1.15,0.07l-1.15,0.02l-0.26,0l-0.25,0l-0.26,-0.01l-0.25,-0.01l-0.26,-0.01l-0.25,-0.01l-0.25,-0.02l-0.26,-0.01l-0.25,-0.02l-0.25,-0.03l-0.25,-0.02l-0.25,-0.03l-0.25,-0.03l-0.25,-0.03l-0.24,-0.03l-0.25,-0.04l-0.25,-0.03l-0.24,-0.04l-0.25,-0.05l-0.24,-0.04l-0.25,-0.05l-0.24,-0.05l-0.24,-0.05l-0.24,-0.05l-0.24,-0.05l-0.24,-0.06l-0.24,-0.06l-0.24,-0.06l-0.24,-0.06l-0.23,-0.07l-0.24,-0.06l-0.23,-0.07l-0.24,-0.07l-0.23,-0.08l-0.23,-0.07l-0.23,-0.08l-0.23,-0.08l-0.23,-0.08l-0.23,-0.08l-0.23,-0.08l-54.35,54.36l-0.04,0.04l-0.04,0.04l-0.05,0.04l-0.04,0.04l-0.04,0.04l-0.04,0.04l-0.04,0.04l-0.04,0.04l-0.05,0.04l-0.04,0.03l-0.04,0.04l-0.04,0.04l-0.05,0.04l-0.04,0.04l-0.04,0.03l-0.05,0.04l-0.04,0.04l-0.05,0.03l-0.04,0.04l-0.04,0.04l-0.05,0.03l-0.04,0.04l-0.05,0.04l-0.04,0.03l-0.05,0.04l-0.05,0.03l-0.04,0.04l-0.05,0.03l-0.04,0.04l-0.05,0.03l-0.05,0.03l-0.04,0.04l-0.05,0.03l-0.05,0.03l-0.04,0.04l-0.05,0.03l-0.05,0.03l-0.05,0.04l-0.04,0.03l-0.05,0.03l-0.02,0.01l-0.02,0.02l-0.03,0.01l-0.02,0.02l-0.02,0.01l-0.02,0.01l-0.02,0.02l-0.03,0.01l-0.02,0.01l-0.02,0.01l-0.02,0.02l-0.03,0.01l-0.02,0.01l-0.02,0.01l-0.02,0.02l-0.03,0.01l-0.02,0.01l-0.02,0.01l-0.03,0.01l-0.02,0.02l-0.02,0.01l-0.02,0.01l-0.03,0.01l-0.04,0.02l-0.09,0.05l-0.03,0.01l-0.02,0.01l-0.02,0.01l-0.03,0.02l-0.02,0.01l-0.02,0.01l-0.02,0.01l-0.03,0.01l-0.02,0.02l-0.02,0.01l-0.03,0.01l-0.02,0.02l-0.03,0.01l-0.03,0.02l-0.02,0.01l-0.03,0.02l-0.03,0.01l-0.03,0.02l-0.02,0.01l-0.03,0.02l-0.05,0.03l-0.06,0.03l-0.03,0.01l-0.02,0.02l-0.03,0.01l-0.03,0.02l-0.02,0.02l-0.03,0.01l-0.03,0.02l-0.03,0.01l-0.02,0.02l-0.03,0.01l-0.03,0.02l-0.02,0.01l-0.03,0.01l-0.03,0.02l-0.03,0.01l-0.03,0.02l-0.02,0.01l-0.03,0.02l-0.03,0.01l-0.03,0.01l-0.03,0.02l-0.02,0.01l-0.03,0.01l-0.03,0.02l-0.03,0.01l-0.03,0.01l-0.03,0.01l-0.03,0.02l-0.03,0.01l-0.02,0.01l-0.03,0.01l-0.03,0.01l-0.03,0.01l-0.03,0.01l-0.03,0.01l-0.03,0.01l-0.03,0.01l-0.03,0.01l-0.03,0.01l-0.03,0.01l-0.03,0.01l-0.03,0.01l-0.03,0.01l-0.03,0.01l-0.03,0.01l-0.03,0l-0.03,0.01l-0.03,0.01l-0.03,0.01l-0.03,0.01l-0.03,0.01l-0.03,0.01l-0.03,0l-0.03,0.01l-0.05,0.02l-0.06,0.02l-0.03,0l-0.03,0.01l-0.03,0.01l-0.03,0.01l-0.03,0.01l-0.03,0.01l-0.03,0l-0.03,0.01l-0.03,0.01l-0.03,0.01l-0.02,0.01l-0.03,0l-0.02,0.01l-0.03,0.01l-0.02,0.01l-0.03,0.01l-0.02,0l-0.02,0.01l-0.03,0.01l-0.05,0.02l-0.05,0.01l-0.02,0.01l-0.05,0.02l-0.03,0.01l-0.02,0l-0.02,0.01l-0.03,0.01l-0.02,0.01l-0.03,0l-0.02,0.01l-0.03,0.01l-0.02,0.01l-0.03,0l-0.02,0.01l-0.03,0.01l-0.02,0.01l-0.03,0l-0.02,0.01l-0.03,0.01l-0.02,0l-0.03,0.01l-0.02,0l-0.03,0.01l-0.03,0.01l-0.02,0l-0.03,0.01l-0.11,0.02l-0.11,0.02l-0.12,0.02l-0.11,0.02l-0.11,0.01l-0.12,0.02l-0.11,0.02l-0.12,0.01l-0.11,0.01l-0.11,0.01l-0.12,0.01l-0.11,0.01l-0.12,0.01l-0.11,0.01l-0.12,0.01l-0.11,0l-0.12,0l-0.11,0.01l-0.12,0l-0.11,0l-0.12,0l-0.11,0l-0.12,-0.01l-0.11,0l-0.11,0l-0.12,-0.01l-0.11,-0.01l-0.12,-0.01l-0.11,-0.01l-0.12,-0.01l-0.11,-0.01l-0.12,-0.01l-0.11,-0.01l-0.11,-0.02l-0.12,-0.02l-0.11,-0.01l-0.12,-0.02l-0.11,-0.02l-0.11,-0.02l-0.12,-0.02l-0.02,-0.01l-0.03,0l-0.02,-0.01l-0.03,-0.01l-0.02,0l-0.03,-0.01l-0.02,-0.01l-0.03,0l-0.02,-0.01l-0.03,-0.01l-0.02,0l-0.03,-0.01l-0.02,-0.01l-0.03,0l-0.02,-0.01l-0.03,-0.01l-0.02,-0.01l-0.03,0l-0.02,-0.01l-0.03,-0.01l-0.02,-0.01l-0.03,-0.01l-0.02,0l-0.05,-0.02l-0.07,-0.02l-0.03,-0.01l-0.02,-0.01l-0.03,-0.01l-0.02,-0.01l-0.03,0l-0.02,-0.01l-0.03,-0.01l-0.02,-0.01l-0.03,-0.01l-0.02,0l-0.02,-0.01l-0.03,-0.01l-0.03,-0.01l-0.03,-0.01l-0.03,0l-0.03,-0.01l-0.03,-0.01l-0.03,-0.01l-0.03,-0.01l-0.03,-0.01l-0.06,-0.01l-0.06,-0.02l-0.03,-0.01l-0.03,-0.01l-0.03,0l-0.03,-0.01l-0.03,-0.01l-0.03,-0.01l-0.03,-0.01l-0.03,-0.01l-0.03,-0.01l-0.02,0l-0.03,-0.01l-0.03,-0.01l-0.03,-0.01l-0.03,-0.01l-0.03,-0.01l-0.03,-0.01l-0.03,-0.01l-0.03,-0.01l-0.03,-0.01l-0.03,-0.01l-0.03,-0.01l-0.03,-0.01l-0.03,-0.01l-0.03,-0.01l-0.03,-0.01l-0.03,-0.01l-0.03,-0.01l-0.02,-0.02l-0.03,-0.01l-0.03,-0.01l-0.03,-0.01l-0.03,-0.02l-0.03,-0.01l-0.03,-0.01l-0.02,-0.02l-0.03,-0.01l-0.03,-0.01l-0.03,-0.02l-0.03,-0.01l-0.02,-0.01l-0.03,-0.02l-0.03,-0.01l-0.03,-0.02l-0.02,-0.01l-0.03,-0.02l-0.03,-0.01l-0.03,-0.02l-0.02,-0.01l-0.03,-0.02l-0.03,-0.01l-0.03,-0.02l-0.02,-0.01l-0.03,-0.02l-0.03,-0.01l-0.05,-0.04l-0.03,-0.01l-0.02,-0.02l-0.03,-0.01l-0.06,-0.03l-0.02,-0.02l-0.03,-0.01l-0.03,-0.02l-0.02,-0.01l-0.03,-0.02l-0.03,-0.01l-0.03,-0.02l-0.02,-0.01l-0.02,-0.01l-0.02,-0.02l-0.03,-0.01l-0.02,-0.01l-0.02,-0.01l-0.03,-0.01l-0.02,-0.02l-0.02,-0.01l-0.02,-0.01l-0.05,-0.02l-0.05,-0.02l-0.02,-0.02l-0.05,-0.02l-0.02,-0.01l-0.02,-0.01l-0.02,-0.01l-0.03,-0.02l-0.02,-0.01l-0.02,-0.01l-0.03,-0.01l-0.02,-0.01l-0.02,-0.02l-0.02,-0.01l-0.03,-0.01l-0.02,-0.01l-0.02,-0.02l-0.02,-0.01l-0.03,-0.01l-0.02,-0.01l-0.02,-0.02l-0.02,-0.01l-0.02,-0.01l-0.03,-0.02l-0.02,-0.01l-0.02,-0.02l-0.02,-0.01l-0.1,-0.06l-0.09,-0.07l-0.1,-0.07l-0.09,-0.06l-0.09,-0.07l-0.09,-0.07l-0.1,-0.07l-0.09,-0.07l-0.09,-0.07l-0.09,-0.08l-0.08,-0.07l-0.09,-0.07l-0.09,-0.08l-0.09,-0.07l-0.08,-0.08l-0.09,-0.08l-0.08,-0.08l-0.08,-0.08l-0.09,-0.08l-0.08,-0.08l-0.08,-0.08l-0.08,-0.08l-0.08,-0.09l-0.08,-0.08l-0.07,-0.08l-0.08,-0.09l-0.08,-0.09l-0.07,-0.08l-0.08,-0.09l-0.07,-0.09l-0.07,-0.09l-0.07,-0.09l-0.07,-0.09l-0.07,-0.09l-0.07,-0.09l-0.07,-0.1l-0.07,-0.09l-0.07,-0.09l-0.06,-0.1l-0.07,-0.09l-0.01,-0.03l-0.01,-0.02l-0.02,-0.02l-0.01,-0.02l-0.02,-0.02l-0.01,-0.03l-0.01,-0.02l-0.02,-0.02l-0.01,-0.02l-0.01,-0.03l-0.01,-0.02l-0.02,-0.02l-0.01,-0.02l-0.01,-0.03l-0.01,-0.02l-0.02,-0.02l-0.01,-0.03l-0.01,-0.02l-0.01,-0.02l-0.01,-0.02l-0.01,-0.03l-0.02,-0.02l-0.01,-0.02l-0.02,-0.05l-0.02,-0.05l-0.02,-0.02l-0.01,-0.02l-0.01,-0.02l-0.01,-0.03l-0.01,-0.02l-0.01,-0.02l-0.02,-0.03l-0.01,-0.02l-0.01,-0.02l-0.01,-0.03l-0.02,-0.02l-0.01,-0.02l-0.01,-0.02l-0.02,-0.03l-0.01,-0.03l-0.02,-0.03l-0.01,-0.02l-0.02,-0.03l-0.01,-0.03l-0.02,-0.02l-0.03,-0.06l-0.04,-0.08l-0.02,-0.03l-0.01,-0.02l-0.02,-0.03l-0.01,-0.03l-0.02,-0.02l-0.02,-0.03l-0.01,-0.03l-0.02,-0.03l-0.01,-0.02l-0.01,-0.03l-0.02,-0.03l-0.01,-0.02l-0.02,-0.03l-0.01,-0.03l-0.02,-0.03l-0.01,-0.02l-0.02,-0.03l-0.01,-0.03l-0.01,-0.03l-0.02,-0.02l-0.01,-0.03l-0.01,-0.03l-0.02,-0.03l-0.01,-0.03l-0.01,-0.03l-0.01,-0.02l-0.02,-0.03l-0.01,-0.03l-0.01,-0.03l-0.01,-0.03l-0.01,-0.03l-0.01,-0.03l-0.02,-0.03l-0.01,-0.03l-0.01,-0.03l-0.01,-0.02l-0.01,-0.03l-0.01,-0.03l-0.01,-0.03l-0.01,-0.03l-0.01,-0.03l-0.01,-0.03l0,-0.03l-0.01,-0.03l-0.01,-0.03l-0.01,-0.03l-0.01,-0.03l-0.01,-0.03l-0.01,-0.03l-0.01,-0.03l0,-0.03l-0.01,-0.03l-0.01,-0.03l-0.01,-0.03l-0.01,-0.03l-0.01,-0.06l-0.02,-0.06l-0.01,-0.03l-0.01,-0.03l-0.01,-0.03l0,-0.03l-0.01,-0.03l-0.01,-0.03l-0.01,-0.03l-0.01,-0.03l-0.01,-0.03l0,-0.02l-0.01,-0.03l-0.01,-0.02l-0.01,-0.03l-0.01,-0.02l0,-0.02l-0.01,-0.03l-0.01,-0.02l-0.01,-0.03l0,-0.02l-0.02,-0.05l-0.02,-0.08l-0.01,-0.02l-0.02,-0.05l-0.01,-0.02l0,-0.03l-0.01,-0.02l-0.01,-0.03l-0.01,-0.02l-0.01,-0.03l0,-0.02l-0.01,-0.02l-0.01,-0.03l-0.01,-0.02l0,-0.03l-0.01,-0.02l-0.01,-0.03l0,-0.02l-0.01,-0.03l-0.01,-0.02l0,-0.03l-0.01,-0.02l0,-0.03l-0.01,-0.02l-0.01,-0.03l0,-0.03l-0.02,-0.11l-0.02,-0.11l-0.02,-0.12l-0.02,-0.11l-0.02,-0.11l-0.02,-0.12l-0.01,-0.11l-0.01,-0.12l-0.02,-0.11l-0.01,-0.11l-0.01,-0.12l-0.01,-0.11l-0.01,-0.12l-0.01,-0.11l0,-0.12l-0.01,-0.11l0,-0.12l0,-0.11l0,-0.12l-0.01,-0.11l0.01,-0.11l0,-0.12l0,-0.11l0,-0.12l0.01,-0.11l0,-0.12l0.01,-0.11l0.01,-0.12l0.01,-0.11l0.01,-0.12l0.01,-0.11l0.02,-0.12l0.01,-0.11l0.01,-0.11l0.02,-0.12l0.02,-0.11l0.02,-0.11l0.02,-0.12l0.02,-0.11l0.02,-0.11l0,-0.03l0.01,-0.03l0.01,-0.02l0,-0.03l0.01,-0.02l0,-0.03l0.01,-0.02l0.01,-0.03l0,-0.02l0.01,-0.03l0.01,-0.02l0,-0.03l0.01,-0.02l0.01,-0.03l0.01,-0.02l0,-0.03l0.01,-0.02l0.01,-0.03l0.01,-0.02l0.01,-0.03l0,-0.02l0.01,-0.03l0.01,-0.02l0.02,-0.05l0.02,-0.07l0.01,-0.03l0.01,-0.02l0,-0.03l0.01,-0.02l0.01,-0.03l0.01,-0.02l0,-0.02l0.01,-0.03l0.01,-0.02l0.01,-0.03l0.01,-0.02l0,-0.03l0.01,-0.03l0.01,-0.03l0.01,-0.03l0.01,-0.03l0.01,-0.03l0,-0.03l0.01,-0.03l0.01,-0.03l0.02,-0.06l0.01,-0.06l0.01,-0.03l0.01,-0.03l0.01,-0.03l0.01,-0.03l0.01,-0.03l0,-0.03l0.01,-0.03l0.01,-0.02l0.01,-0.03l0.01,-0.03l0.01,-0.03l0.01,-0.03l0.01,-0.03l0,-0.03l0.01,-0.03l0.01,-0.03l0.01,-0.03l0.01,-0.03l0.01,-0.03l0.01,-0.03l0.01,-0.03l0.01,-0.03l0.01,-0.03l0.02,-0.03l0.01,-0.03l0.01,-0.03l0.01,-0.02l0.01,-0.03l0.01,-0.03l0.02,-0.03l0.01,-0.03l0.01,-0.03l0.01,-0.03l0.02,-0.03l0.01,-0.02l0.01,-0.03l0.02,-0.03l0.01,-0.03l0.02,-0.03l0.01,-0.02l0.01,-0.03l0.02,-0.03l0.01,-0.03l0.02,-0.02l0.01,-0.03l0.02,-0.03l0.01,-0.03l0.02,-0.02l0.01,-0.03l0.02,-0.03l0.01,-0.02l0.02,-0.03l0.01,-0.03l0.02,-0.03l0.03,-0.05l0.02,-0.03l0.01,-0.02l0.02,-0.03l0.03,-0.06l0.01,-0.02l0.02,-0.03l0.01,-0.03l0.02,-0.02l0.01,-0.03l0.02,-0.03l0.01,-0.03l0.02,-0.02l0.01,-0.02l0.01,-0.02l0.01,-0.03l0.01,-0.02l0.02,-0.02l0.01,-0.03l0.01,-0.02l0.01,-0.02l0.01,-0.02l0.03,-0.05l0.02,-0.05l0.01,-0.02l0.02,-0.04l0.02,-0.03l0.01,-0.02l0.01,-0.02l0.01,-0.03l0.01,-0.02l0.01,-0.02l0.02,-0.02l0.01,-0.03l0.01,-0.02l0.01,-0.02l0.02,-0.02l0.01,-0.03l0.01,-0.02l0.01,-0.02l0.02,-0.02l0.01,-0.03l0.01,-0.02l0.02,-0.02l0.01,-0.02l0.01,-0.03l0.02,-0.02l0.01,-0.02l0.01,-0.02l0.04,-0.05l0.03,-0.05l0.03,-0.04l0.04,-0.05l0.03,-0.05l0.03,-0.05l0.03,-0.04l0.04,-0.05l0.03,-0.05l0.04,-0.04l0.03,-0.05l0.04,-0.04l0.03,-0.05l0.03,-0.05l0.04,-0.04l0.04,-0.05l0.03,-0.04l0.04,-0.05l0.03,-0.04l0.04,-0.05l0.03,-0.04l0.04,-0.05l0.04,-0.04l0.03,-0.04l0.04,-0.05l0.04,-0.04l0.04,-0.04l0.03,-0.05l0.04,-0.04l0.04,-0.04l0.04,-0.05l0.04,-0.04l0.04,-0.04l0.04,-0.04l0.04,-0.04l0.04,-0.04l0.04,-0.05l0.04,-0.04l0.04,-0.04l0.04,-0.04l54.35,-54.36l-0.08,-0.23l-0.08,-0.23l-0.08,-0.22l-0.08,-0.24l-0.08,-0.23l-0.07,-0.23l-0.07,-0.23l-0.07,-0.24l-0.07,-0.23l-0.07,-0.24l-0.06,-0.23l-0.07,-0.24l-0.06,-0.24l-0.06,-0.24l-0.05,-0.24l-0.06,-0.24l-0.05,-0.24l-0.05,-0.24l-0.05,-0.24l-0.05,-0.25l-0.04,-0.24l-0.04,-0.25l-0.04,-0.24l-0.04,-0.25l-0.04,-0.24l-0.03,-0.25l-0.03,-0.25l-0.03,-0.25l-0.03,-0.25l-0.02,-0.25l-0.02,-0.25l-0.02,-0.25l-0.02,-0.26l-0.02,-0.25l-0.01,-0.25l-0.01,-0.26l-0.01,-0.25l-0.01,-0.26l0,-0.25l0,-0.26l0.02,-1.15l0.07,-1.15l0.12,-1.13l0.16,-1.11l0.2,-1.1l0.24,-1.09l0.29,-1.07l0.33,-1.05l0.36,-1.03l0.41,-1.02l0.44,-0.99l0.49,-0.98l0.51,-0.95l0.55,-0.93l0.59,-0.91l0.62,-0.88l0.65,-0.85l0.69,-0.83l0.72,-0.8l0.74,-0.78l0.77,-0.74l0.81,-0.72l0.83,-0.68l0.85,-0.66l0.88,-0.62l0.91,-0.59l0.93,-0.55l0.95,-0.51l0.98,-0.49l0.99,-0.44l1.02,-0.41l1.03,-0.36l1.05,-0.33l1.07,-0.29l1.09,-0.24l1.1,-0.2l1.11,-0.16l1.13,-0.12l1.15,-0.07l1.15,-0.02l0.32,0l0.33,0.01zm-61.32,15.08l21.95,21.94l-8.25,8.25l-21.95,-21.95l-5.08,0l-10,-16.66l6.67,-6.67l16.66,10l0,5.09z"/>
 </defs>
 <g>
  <title>background</title>
  <rect fill="none" id="canvas_background" height="402" width="582" y="-1" x="-1"/>
 </g>
 <g>
  <title>Layer 1</title>
  <defs>
   <path id="svg_8" d="m10.35,15l-4,0l0,-6l4,0l4.99,-5l0,16l-4.99,-5zm10.06,0.94l0.12,0.06l0.08,0.1l0.04,0.13l-0.01,0.13l-0.16,0.57l-0.07,0.12l-0.1,0.09l-0.12,0.04l-0.14,-0.01l-2.64,-0.76l-0.12,-0.06l-0.08,-0.1l-0.04,-0.13l0.01,-0.13l0.16,-0.57l0.07,-0.12l0.1,-0.09l0.12,-0.04l0.14,0.01l2.64,0.76zm0.11,-4.36l0.08,0.11l0.02,0.13l0,0.59l-0.02,0.13l-0.08,0.11l-0.1,0.08l-0.14,0.02l-2.74,0l-0.14,-0.02l-0.1,-0.08l-0.08,-0.11l-0.02,-0.13l0,-0.59l0.02,-0.13l0.08,-0.11l0.1,-0.07l0.14,-0.03l2.74,0l0.14,0.03l0.1,0.07zm-0.28,-4.67l0.08,0.11l0.26,0.53l0.03,0.13l-0.01,0.13l-0.07,0.11l-0.11,0.08l-2.47,1.21l-0.13,0.03l-0.13,-0.02l-0.11,-0.06l-0.08,-0.11l-0.26,-0.53l-0.03,-0.13l0.01,-0.13l0.07,-0.12l0.11,-0.08l2.47,-1.2l0.13,-0.04l0.13,0.02l0.11,0.07z"/>
  </defs>
  <defs>
   <path id="svg_20" d="m587.1,144.5l1.22,0.12l1.21,0.18l1.19,0.22l1.18,0.26l1.16,0.32l1.14,0.35l1.12,0.4l1.1,0.44l1.07,0.49l1.06,0.52l1.03,0.56l1.01,0.61l0.98,0.63l0.96,0.68l0.93,0.71l0.9,0.74l0.87,0.78l0.85,0.81l0.81,0.84l0.77,0.87l0.75,0.91l0.71,0.93l0.67,0.95l0.64,0.99l0.6,1l0.57,1.04l0.52,1.05l0.48,1.08l0.44,1.1l0.4,1.12l0.36,1.14l0.31,1.16l0.27,1.18l0.22,1.19l0.17,1.2l0.13,1.23l0.07,1.23l0.03,1.25l0,455.72l-121.52,-121.53l-334.2,0l-1.24,-0.02l-1.24,-0.08l-1.22,-0.13l-1.21,-0.17l-1.19,-0.22l-1.17,-0.27l-1.16,-0.31l-1.14,-0.35l-1.12,-0.4l-1.1,-0.45l-1.08,-0.48l-1.06,-0.52l-1.03,-0.57l-1.01,-0.6l-0.98,-0.64l-0.96,-0.67l-0.93,-0.71l-0.9,-0.75l-0.87,-0.77l-0.84,-0.81l-0.81,-0.85l-0.78,-0.87l-0.74,-0.9l-0.72,-0.93l-0.67,-0.95l-0.64,-0.99l-0.6,-1.01l-0.56,-1.03l-0.53,-1.06l-0.48,-1.07l-0.44,-1.1l-0.4,-1.12l-0.36,-1.14l-0.31,-1.16l-0.27,-1.18l-0.22,-1.19l-0.17,-1.21l-0.13,-1.22l-0.07,-1.23l-0.03,-1.25l0,-60.76l394.96,0l0,-273.43l60.76,0l1.25,0.02l1.23,0.08zm-148.23,-134.84l1.83,0.18l1.81,0.26l1.79,0.34l1.76,0.4l1.74,0.46l1.71,0.54l1.68,0.6l1.65,0.66l1.62,0.73l1.58,0.78l1.55,0.85l1.51,0.9l1.48,0.96l1.43,1.01l1.4,1.06l1.35,1.12l1.31,1.17l1.26,1.21l1.21,1.26l1.17,1.31l1.12,1.35l1.06,1.4l1.02,1.43l0.95,1.48l0.91,1.51l0.84,1.55l0.78,1.58l0.73,1.62l0.66,1.65l0.6,1.68l0.54,1.71l0.47,1.74l0.4,1.76l0.33,1.79l0.26,1.81l0.18,1.83l0.12,1.86l0.04,1.87l0,273.43l-0.04,1.87l-0.12,1.85l-0.18,1.83l-0.26,1.81l-0.33,1.79l-0.4,1.76l-0.47,1.74l-0.54,1.71l-0.6,1.68l-0.66,1.65l-0.73,1.62l-0.78,1.58l-0.84,1.55l-0.91,1.52l-0.95,1.47l-1.02,1.44l-1.06,1.39l-1.12,1.35l-1.17,1.31l-1.21,1.26l-1.26,1.22l-1.31,1.16l-1.35,1.12l-1.4,1.07l-1.43,1.01l-1.48,0.96l-1.51,0.9l-1.55,0.84l-1.58,0.79l-1.62,0.72l-1.65,0.67l-1.68,0.6l-1.71,0.53l-1.74,0.47l-1.76,0.4l-1.79,0.33l-1.81,0.26l-1.83,0.19l-1.85,0.11l-1.88,0.04l-319,0l-91.14,91.14l0,-410.14l0.04,-1.87l0.11,-1.86l0.19,-1.83l0.26,-1.81l0.33,-1.79l0.4,-1.76l0.47,-1.74l0.53,-1.71l0.6,-1.68l0.67,-1.65l0.72,-1.62l0.79,-1.58l0.84,-1.55l0.9,-1.51l0.96,-1.48l1.01,-1.43l1.07,-1.4l1.11,-1.35l1.17,-1.31l1.22,-1.26l1.26,-1.21l1.31,-1.17l1.35,-1.12l1.39,-1.06l1.44,-1.01l1.47,-0.96l1.52,-0.9l1.54,-0.85l1.59,-0.78l1.62,-0.73l1.65,-0.66l1.68,-0.6l1.71,-0.54l1.73,-0.46l1.77,-0.4l1.78,-0.34l1.82,-0.26l1.83,-0.18l1.85,-0.12l1.87,-0.03l364.57,0l1.88,0.03l1.85,0.12z"/>
  </defs>
  <g id="svg_30">
   <g stroke="null" id="svg_16">
    <g stroke="null" transform="matrix(5.852384073488151,0,0,5.267381514593368,0.8461551546801047,3.0862543273852907) " id="svg_10">
     <g stroke="null" id="svg_11">
      <g stroke="null" id="svg_12">
       <use x="-3.132161" y="-1.48266" id="svg_13" fill="#037dca" xlink:href="#svg_8"/>
       <g stroke="null" id="svg_14">
        <use fill="#037dca" x="-3.132161" y="-1.48266" id="svg_15" stroke-opacity="0" fill-opacity="0" xlink:href="#svg_8"/>
       </g>
      </g>
     </g>
    </g>
   </g>
   <g stroke="null" id="svg_28">
    <g stroke="null" transform="matrix(0.13830485435421036,0,0,0.12212689639151644,-206.92470645316826,-171.50082800813163) " id="svg_22">
     <g stroke="null" id="svg_23">
      <g stroke="null" id="svg_24">
       <use x="2127.105999" y="2212.074579" id="svg_25" fill="#037dca" xlink:href="#svg_20"/>
       <g stroke="null" id="svg_26">
        <use fill="#037dca" x="2127.105999" y="2212.074579" id="svg_27" stroke-opacity="0" fill-opacity="0" xlink:href="#svg_20"/>
       </g>
      </g>
     </g>
    </g>
   </g>
  </g>
 </g>
</svg>