<?xml version="1.0" encoding="UTF-8" standalone="no"?>
<!DOCTYPE svg PUBLIC "-//W3C//DTD SVG 1.1//EN" "http://www.w3.org/Graphics/SVG/1.1/DTD/svg11.dtd">
<svg version="1.1" xmlns="http://www.w3.org/2000/svg" xmlns:xlink="http://www.w3.org/1999/xlink" preserveAspectRatio="xMidYMid meet" viewBox="0 0 192 192" width="192" height="192"><defs><path d="M148.64 132.14L148.7 132.2L148.76 132.26L148.81 132.32L148.87 132.38L148.92 132.44L148.98 132.5L149.03 132.56L149.09 132.63L149.14 132.69L149.2 132.75L149.25 132.81L149.3 132.88L149.35 132.94L149.41 133L149.46 133.07L149.51 133.13L149.56 133.2L149.61 133.26L149.66 133.33L149.71 133.39L149.75 133.46L149.8 133.53L149.85 133.59L149.9 133.66L149.94 133.73L149.99 133.8L150.04 133.86L150.06 133.9L150.08 133.93L150.1 133.96L150.11 133.99L150.13 134.02L150.15 134.05L150.17 134.09L150.19 134.12L150.21 134.15L150.22 134.18L150.24 134.21L150.26 134.25L150.27 134.28L150.29 134.31L150.31 134.34L150.32 134.38L150.34 134.41L150.36 134.44L150.39 134.51L150.41 134.54L150.42 134.57L150.44 134.61L150.46 134.64L150.47 134.67L150.49 134.7L150.51 134.74L150.53 134.77L150.55 134.81L150.57 134.85L150.59 134.89L150.61 134.93L150.63 134.96L150.66 135L150.68 135.04L150.7 135.08L150.72 135.12L150.74 135.16L150.77 135.2L150.79 135.23L150.81 135.27L150.83 135.31L150.85 135.35L150.87 135.39L150.89 135.43L150.92 135.47L150.94 135.51L150.96 135.55L150.98 135.59L151 135.63L151.02 135.67L151.04 135.71L151.05 135.75L151.07 135.79L151.09 135.83L151.11 135.87L151.13 135.91L151.14 135.95L151.16 136L151.17 136.04L151.19 136.08L151.2 136.12L151.22 136.16L151.23 136.21L151.24 136.25L151.26 136.29L151.27 136.33L151.28 136.38L151.3 136.42L151.31 136.46L151.32 136.5L151.33 136.55L151.35 136.59L151.36 136.63L151.37 136.67L151.38 136.72L151.39 136.76L151.4 136.8L151.42 136.84L151.43 136.89L151.44 136.93L151.45 136.97L151.46 137.01L151.48 137.06L151.49 137.09L151.5 137.13L151.51 137.16L151.52 137.2L151.53 137.23L151.54 137.27L151.56 137.3L151.57 137.34L151.58 137.37L151.59 137.41L151.6 137.44L151.61 137.48L151.63 137.51L151.64 137.55L151.65 137.58L151.66 137.62L151.67 137.65L151.68 137.69L151.69 137.73L151.7 137.76L151.71 137.8L151.72 137.83L151.73 137.87L151.74 137.9L151.75 137.94L151.76 137.98L151.76 138.01L151.77 138.05L151.8 138.21L151.83 138.38L151.86 138.54L151.88 138.7L151.9 138.86L151.92 139.03L151.94 139.19L151.95 139.35L151.97 139.52L151.98 139.68L151.99 139.85L151.99 140.01L151.99 140.17L152 140.34L151.99 140.5L151.99 140.67L151.99 140.83L151.98 140.99L151.97 141.16L151.95 141.32L151.94 141.48L151.92 141.65L151.9 141.81L151.88 141.97L151.86 142.14L151.83 142.3L151.8 142.46L151.77 142.62L151.76 142.66L151.76 142.7L151.75 142.73L151.74 142.77L151.73 142.8L151.72 142.84L151.71 142.88L151.7 142.91L151.69 142.95L151.68 142.98L151.67 143.02L151.66 143.05L151.65 143.09L151.63 143.12L151.62 143.16L151.61 143.19L151.6 143.23L151.57 143.33L151.55 143.37L151.54 143.4L151.53 143.44L151.52 143.47L151.51 143.51L151.5 143.54L151.49 143.58L151.48 143.61L151.46 143.66L151.45 143.7L151.44 143.74L151.43 143.78L151.42 143.83L151.4 143.87L151.39 143.91L151.38 143.96L151.37 144L151.36 144.04L151.35 144.08L151.33 144.13L151.32 144.17L151.31 144.21L151.3 144.25L151.28 144.3L151.27 144.34L151.26 144.38L151.24 144.42L151.23 144.47L151.22 144.51L151.2 144.55L151.19 144.59L151.17 144.63L151.16 144.68L151.14 144.72L151.13 144.76L151.11 144.8L151.09 144.84L151.07 144.88L151.06 144.92L151.04 144.96L151.02 145L151 145.04L150.98 145.08L150.96 145.12L150.94 145.16L150.92 145.2L150.9 145.24L150.88 145.28L150.86 145.32L150.84 145.36L150.81 145.39L150.79 145.43L150.77 145.47L150.75 145.51L150.73 145.55L150.7 145.59L150.66 145.66L150.64 145.7L150.62 145.74L150.6 145.78L150.57 145.82L150.55 145.86L150.53 145.9L150.51 145.93L150.5 145.96L150.48 145.99L150.46 146.03L150.44 146.06L150.43 146.09L150.41 146.12L150.39 146.16L150.36 146.22L150.35 146.26L150.33 146.29L150.31 146.32L150.29 146.35L150.28 146.39L150.26 146.42L150.24 146.45L150.23 146.48L150.21 146.52L150.19 146.55L150.17 146.58L150.15 146.61L150.14 146.65L150.12 146.68L150.1 146.71L150.08 146.74L150.06 146.77L150.04 146.81L149.94 146.94L149.85 147.08L149.75 147.21L149.65 147.34L149.55 147.47L149.45 147.6L149.35 147.73L149.24 147.86L149.14 147.98L149.03 148.1L148.92 148.23L148.81 148.35L148.69 148.47L148.58 148.58L148.46 148.7L148.34 148.81L148.22 148.92L148.1 149.03L147.98 149.14L147.85 149.25L147.73 149.35L147.6 149.46L147.47 149.56L147.34 149.66L147.21 149.76L147.07 149.85L146.94 149.95L146.8 150.04L146.77 150.06L146.74 150.08L146.71 150.1L146.68 150.12L146.64 150.14L146.61 150.16L146.58 150.17L146.55 150.19L146.52 150.21L146.48 150.23L146.45 150.24L146.42 150.26L146.39 150.28L146.35 150.3L146.32 150.31L146.29 150.33L146.26 150.35L146.22 150.36L146.16 150.39L146.12 150.41L146.09 150.43L146.06 150.44L146.03 150.46L145.99 150.48L145.96 150.5L145.93 150.51L145.9 150.53L145.86 150.55L145.82 150.57L145.78 150.59L145.74 150.62L145.7 150.64L145.66 150.66L145.62 150.68L145.59 150.7L145.55 150.73L145.51 150.75L145.47 150.77L145.43 150.79L145.39 150.81L145.35 150.84L145.32 150.86L145.28 150.88L145.24 150.9L145.2 150.92L145.16 150.94L145.12 150.96L145.08 150.98L145.04 151L145 151.02L144.96 151.04L144.92 151.06L144.88 151.08L144.84 151.1L144.79 151.11L144.75 151.13L144.71 151.15L144.67 151.16L144.63 151.18L144.59 151.19L144.54 151.21L144.5 151.22L144.46 151.24L144.42 151.25L144.38 151.26L144.33 151.28L144.29 151.29L144.25 151.3L144.21 151.31L144.16 151.33L144.12 151.34L144.08 151.35L144.04 151.36L143.99 151.37L143.95 151.39L143.91 151.4L143.86 151.41L143.82 151.42L143.78 151.43L143.74 151.45L143.69 151.46L143.65 151.47L143.61 151.48L143.57 151.49L143.54 151.5L143.5 151.51L143.47 151.53L143.43 151.54L143.4 151.55L143.36 151.56L143.33 151.57L143.29 151.58L143.26 151.6L143.22 151.61L143.19 151.62L143.15 151.63L143.12 151.64L143.08 151.65L143.05 151.66L143.01 151.67L142.98 151.69L142.94 151.7L142.91 151.71L142.87 151.72L142.83 151.73L142.8 151.74L142.76 151.74L142.73 151.75L142.69 151.76L142.65 151.77L142.62 151.78L142.45 151.81L142.29 151.84L142.13 151.86L141.97 151.89L141.8 151.91L141.64 151.93L141.48 151.94L141.31 151.96L141.15 151.97L140.99 151.98L140.82 151.99L140.66 152L140.49 152L140.33 152L140.17 152L140 152L139.84 151.99L139.68 151.98L139.51 151.97L139.35 151.96L139.18 151.94L139.02 151.93L138.86 151.91L138.7 151.89L138.53 151.86L138.37 151.84L138.21 151.81L138.05 151.78L138.01 151.77L137.97 151.76L137.94 151.75L137.9 151.74L137.86 151.73L137.83 151.72L137.79 151.71L137.76 151.7L137.72 151.69L137.69 151.68L137.65 151.67L137.61 151.66L137.58 151.65L137.54 151.64L137.51 151.63L137.47 151.62L137.44 151.61L137.4 151.59L137.33 151.57L137.3 151.56L137.26 151.55L137.23 151.54L137.19 151.53L137.16 151.51L137.12 151.5L137.09 151.49L137.05 151.48L137.01 151.47L136.97 151.46L136.93 151.45L136.88 151.43L136.84 151.42L136.8 151.41L136.75 151.4L136.71 151.39L136.67 151.37L136.63 151.36L136.58 151.35L136.54 151.34L136.5 151.33L136.46 151.31L136.41 151.3L136.37 151.29L136.33 151.28L136.29 151.26L136.24 151.25L136.2 151.24L136.16 151.22L136.12 151.21L136.08 151.19L136.03 151.18L135.99 151.16L135.95 151.15L135.91 151.13L135.87 151.11L135.83 151.1L135.78 151.08L135.74 151.06L135.7 151.04L135.66 151.02L135.62 151L135.58 150.98L135.54 150.96L135.5 150.94L135.46 150.92L135.43 150.9L135.39 150.88L135.35 150.86L135.31 150.84L135.27 150.82L135.23 150.79L135.19 150.77L135.15 150.75L135.11 150.73L135.08 150.71L135.04 150.68L135 150.66L134.96 150.64L134.92 150.62L134.88 150.6L134.84 150.57L134.8 150.55L134.77 150.53L134.73 150.51L134.7 150.5L134.67 150.48L134.64 150.46L134.6 150.44L134.57 150.43L134.54 150.41L134.5 150.39L134.44 150.36L134.41 150.35L134.37 150.33L134.34 150.31L134.31 150.3L134.28 150.28L134.24 150.26L134.21 150.24L134.18 150.23L134.15 150.21L134.11 150.19L134.08 150.17L134.05 150.16L134.02 150.14L133.99 150.12L133.95 150.1L133.92 150.08L133.89 150.06L133.86 150.04L133.79 149.99L133.72 149.95L133.66 149.9L133.59 149.85L133.52 149.8L133.46 149.76L133.39 149.71L133.32 149.66L133.26 149.61L133.19 149.56L133.13 149.51L133.06 149.46L133 149.41L132.93 149.36L132.87 149.3L132.81 149.25L132.75 149.2L132.68 149.15L132.62 149.09L132.56 149.04L132.5 148.98L132.44 148.93L132.38 148.87L132.32 148.82L132.26 148.76L132.2 148.7L132.14 148.65L132.08 148.59L102.6 119.1L119.1 102.6L148.58 132.09L148.64 132.14ZM124.65 40.01L124.97 40.02L125.29 40.03L125.61 40.05L125.93 40.07L126.25 40.09L126.56 40.12L126.88 40.15L127.19 40.18L127.51 40.22L127.82 40.26L128.13 40.31L128.44 40.36L128.75 40.41L129.06 40.47L129.36 40.53L129.67 40.59L129.97 40.65L130.27 40.72L130.58 40.79L130.88 40.87L131.18 40.95L131.47 41.03L131.77 41.12L132.07 41.2L132.36 41.29L132.65 41.39L132.94 41.49L133.23 41.59L133.52 41.69L133.81 41.8L134.09 41.91L134.38 42.02L134.66 42.13L134.94 42.25L135.22 42.37L135.5 42.5L135.77 42.62L136.05 42.75L115.07 63.74L128.27 76.93L149.25 55.95L149.38 56.23L149.5 56.5L149.63 56.78L149.75 57.06L149.87 57.34L149.98 57.62L150.09 57.91L150.2 58.19L150.31 58.48L150.41 58.77L150.51 59.06L150.61 59.35L150.71 59.64L150.8 59.94L150.88 60.23L150.97 60.53L151.05 60.82L151.13 61.12L151.21 61.42L151.28 61.73L151.35 62.03L151.41 62.33L151.47 62.64L151.53 62.95L151.59 63.25L151.64 63.56L151.69 63.87L151.74 64.18L151.78 64.5L151.82 64.81L151.85 65.12L151.88 65.44L151.91 65.76L151.93 66.07L151.95 66.39L151.97 66.71L151.98 67.03L151.99 67.35L152 67.68L152 68L151.98 69.16L151.91 70.3L151.79 71.43L151.63 72.54L151.43 73.64L151.19 74.73L150.9 75.8L150.57 76.85L150.21 77.89L149.8 78.9L149.36 79.9L148.87 80.87L148.36 81.82L147.81 82.75L147.22 83.66L146.6 84.54L145.95 85.39L145.26 86.22L144.54 87.03L143.8 87.8L143.03 88.55L142.22 89.26L141.39 89.95L140.54 90.6L139.66 91.22L138.75 91.81L137.82 92.36L136.87 92.88L135.89 93.36L134.9 93.8L133.88 94.21L132.85 94.57L131.8 94.9L130.73 95.19L129.64 95.43L128.54 95.64L127.43 95.79L126.3 95.91L125.15 95.98L124 96L123.74 96L123.49 96L123.23 95.99L122.98 95.98L122.72 95.97L122.47 95.96L122.22 95.94L121.96 95.93L121.71 95.91L121.46 95.88L121.21 95.86L120.96 95.83L120.71 95.8L120.46 95.77L120.22 95.74L119.97 95.7L119.72 95.67L119.48 95.63L119.23 95.58L118.99 95.54L118.74 95.49L118.5 95.44L118.26 95.39L118.02 95.34L117.78 95.29L117.54 95.23L117.3 95.17L117.06 95.11L116.82 95.05L116.59 94.98L116.35 94.92L116.12 94.85L115.88 94.78L115.65 94.7L115.42 94.63L115.19 94.55L114.96 94.47L114.73 94.39L114.5 94.31L114.27 94.23L59.92 148.59L59.88 148.63L59.84 148.67L59.79 148.71L59.75 148.75L59.71 148.79L59.67 148.83L59.63 148.87L59.59 148.91L59.54 148.95L59.5 148.98L59.46 149.02L59.42 149.06L59.37 149.1L59.33 149.14L59.29 149.17L59.24 149.21L59.2 149.25L59.15 149.28L59.11 149.32L59.07 149.36L59.02 149.39L58.98 149.43L58.93 149.47L58.89 149.5L58.84 149.54L58.79 149.57L58.75 149.61L58.7 149.64L58.66 149.68L58.61 149.71L58.56 149.74L58.52 149.78L58.47 149.81L58.42 149.84L58.38 149.88L58.33 149.91L58.28 149.94L58.23 149.98L58.19 150.01L58.14 150.04L58.12 150.05L58.1 150.07L58.07 150.08L58.05 150.1L58.03 150.11L58.01 150.12L57.99 150.14L57.96 150.15L57.94 150.16L57.92 150.17L57.9 150.19L57.87 150.2L57.85 150.21L57.83 150.22L57.81 150.24L57.78 150.25L57.76 150.26L57.74 150.27L57.71 150.28L57.69 150.3L57.67 150.31L57.65 150.32L57.62 150.33L57.58 150.35L57.49 150.4L57.46 150.41L57.44 150.42L57.42 150.43L57.39 150.45L57.37 150.46L57.35 150.47L57.33 150.48L57.3 150.49L57.28 150.51L57.26 150.52L57.23 150.53L57.21 150.55L57.18 150.56L57.15 150.58L57.13 150.59L57.1 150.61L57.07 150.62L57.04 150.64L57.02 150.65L56.99 150.67L56.94 150.7L56.88 150.73L56.85 150.74L56.83 150.76L56.8 150.77L56.77 150.79L56.75 150.81L56.72 150.82L56.69 150.84L56.66 150.85L56.64 150.87L56.61 150.88L56.58 150.9L56.56 150.91L56.53 150.92L56.5 150.94L56.47 150.95L56.44 150.97L56.42 150.98L56.39 151L56.36 151.01L56.33 151.02L56.3 151.04L56.28 151.05L56.25 151.06L56.22 151.08L56.19 151.09L56.16 151.1L56.13 151.11L56.1 151.13L56.07 151.14L56.05 151.15L56.02 151.16L55.99 151.17L55.96 151.18L55.93 151.19L55.9 151.2L55.87 151.21L55.84 151.22L55.81 151.23L55.78 151.24L55.75 151.25L55.72 151.26L55.69 151.27L55.66 151.28L55.63 151.29L55.6 151.3L55.57 151.3L55.54 151.31L55.51 151.32L55.48 151.33L55.45 151.34L55.42 151.35L55.39 151.36L55.36 151.36L55.33 151.37L55.28 151.39L55.22 151.41L55.19 151.41L55.16 151.42L55.13 151.43L55.1 151.44L55.07 151.45L55.04 151.46L55.01 151.46L54.98 151.47L54.95 151.48L54.92 151.49L54.9 151.5L54.87 151.5L54.85 151.51L54.82 151.52L54.8 151.53L54.77 151.54L54.75 151.54L54.73 151.55L54.7 151.56L54.65 151.58L54.6 151.59L54.58 151.6L54.53 151.62L54.5 151.63L54.48 151.63L54.46 151.64L54.43 151.65L54.41 151.66L54.38 151.66L54.36 151.67L54.33 151.68L54.31 151.69L54.28 151.69L54.26 151.7L54.23 151.71L54.21 151.72L54.18 151.72L54.16 151.73L54.13 151.74L54.11 151.74L54.08 151.75L54.06 151.75L54.03 151.76L54 151.77L53.98 151.77L53.95 151.78L53.84 151.8L53.73 151.82L53.61 151.84L53.5 151.86L53.39 151.87L53.27 151.89L53.16 151.91L53.04 151.92L52.93 151.93L52.82 151.94L52.7 151.95L52.59 151.96L52.47 151.97L52.36 151.98L52.24 151.99L52.13 151.99L52.01 151.99L51.9 152L51.78 152L51.67 152L51.55 152L51.44 152L51.32 151.99L51.21 151.99L51.1 151.99L50.98 151.98L50.87 151.97L50.75 151.96L50.64 151.95L50.52 151.94L50.41 151.93L50.29 151.92L50.18 151.91L50.07 151.89L49.95 151.87L49.84 151.86L49.72 151.84L49.61 151.82L49.5 151.8L49.38 151.78L49.36 151.77L49.33 151.77L49.31 151.76L49.28 151.75L49.26 151.75L49.23 151.74L49.21 151.73L49.18 151.73L49.16 151.72L49.13 151.71L49.11 151.71L49.08 151.7L49.06 151.69L49.03 151.69L49.01 151.68L48.98 151.67L48.96 151.66L48.93 151.66L48.91 151.65L48.88 151.64L48.86 151.63L48.83 151.62L48.81 151.62L48.76 151.6L48.69 151.58L48.66 151.57L48.64 151.56L48.61 151.55L48.59 151.54L48.56 151.54L48.54 151.53L48.51 151.52L48.49 151.51L48.46 151.5L48.44 151.5L48.42 151.49L48.39 151.48L48.36 151.47L48.33 151.46L48.3 151.46L48.27 151.45L48.24 151.44L48.21 151.43L48.18 151.42L48.15 151.41L48.09 151.4L48.03 151.38L48 151.37L47.97 151.36L47.94 151.36L47.91 151.35L47.88 151.34L47.85 151.33L47.82 151.32L47.79 151.31L47.76 151.3L47.74 151.3L47.71 151.29L47.68 151.28L47.65 151.27L47.62 151.26L47.59 151.25L47.56 151.24L47.53 151.23L47.5 151.22L47.47 151.21L47.44 151.2L47.41 151.19L47.38 151.18L47.35 151.17L47.32 151.16L47.29 151.15L47.26 151.14L47.23 151.13L47.21 151.11L47.18 151.1L47.15 151.09L47.12 151.08L47.09 151.06L47.06 151.05L47.03 151.04L47.01 151.02L46.98 151.01L46.95 151L46.92 150.98L46.89 150.97L46.87 150.96L46.84 150.94L46.81 150.93L46.78 150.91L46.76 150.9L46.73 150.88L46.7 150.87L46.67 150.85L46.65 150.84L46.62 150.82L46.59 150.81L46.56 150.79L46.54 150.78L46.51 150.76L46.48 150.75L46.43 150.71L46.4 150.7L46.38 150.68L46.35 150.67L46.29 150.64L46.27 150.62L46.24 150.61L46.21 150.59L46.19 150.58L46.16 150.56L46.13 150.55L46.1 150.53L46.08 150.52L46.06 150.51L46.04 150.49L46.01 150.48L45.99 150.47L45.97 150.46L45.94 150.45L45.92 150.43L45.9 150.42L45.88 150.41L45.83 150.39L45.78 150.37L45.76 150.35L45.71 150.33L45.69 150.32L45.67 150.31L45.65 150.3L45.62 150.28L45.6 150.27L45.58 150.26L45.55 150.25L45.53 150.24L45.51 150.22L45.49 150.21L45.46 150.2L45.44 150.19L45.42 150.17L45.4 150.16L45.37 150.15L45.35 150.14L45.33 150.12L45.31 150.11L45.29 150.1L45.26 150.08L45.24 150.07L45.22 150.05L45.2 150.04L45.1 149.98L45.01 149.91L44.91 149.84L44.82 149.78L44.73 149.71L44.64 149.64L44.54 149.57L44.45 149.5L44.36 149.43L44.27 149.35L44.19 149.28L44.1 149.21L44.01 149.13L43.92 149.06L43.84 148.98L43.75 148.9L43.67 148.82L43.59 148.74L43.5 148.66L43.42 148.58L43.34 148.5L43.26 148.42L43.18 148.33L43.1 148.25L43.03 148.17L42.95 148.08L42.87 147.99L42.8 147.91L42.72 147.82L42.65 147.73L42.58 147.64L42.51 147.55L42.44 147.46L42.37 147.37L42.3 147.28L42.23 147.18L42.16 147.09L42.09 147L42.03 146.9L41.96 146.81L41.95 146.78L41.94 146.76L41.92 146.74L41.91 146.72L41.89 146.7L41.88 146.67L41.87 146.65L41.85 146.63L41.84 146.61L41.83 146.58L41.82 146.56L41.8 146.54L41.79 146.52L41.78 146.49L41.77 146.47L41.75 146.45L41.74 146.42L41.73 146.4L41.72 146.38L41.71 146.36L41.7 146.33L41.68 146.31L41.67 146.29L41.65 146.24L41.63 146.19L41.61 146.17L41.6 146.15L41.59 146.13L41.58 146.1L41.57 146.08L41.56 146.06L41.54 146.03L41.53 146.01L41.52 145.99L41.51 145.96L41.49 145.94L41.48 145.92L41.47 145.9L41.45 145.87L41.44 145.84L41.42 145.81L41.41 145.79L41.39 145.76L41.38 145.73L41.36 145.71L41.33 145.65L41.29 145.57L41.27 145.54L41.26 145.52L41.24 145.49L41.23 145.46L41.21 145.44L41.19 145.41L41.18 145.38L41.16 145.35L41.15 145.33L41.14 145.3L41.12 145.27L41.11 145.25L41.09 145.22L41.08 145.19L41.06 145.16L41.05 145.14L41.03 145.11L41.02 145.08L41.01 145.05L40.99 145.03L40.98 145L40.97 144.97L40.95 144.94L40.94 144.91L40.93 144.88L40.92 144.86L40.9 144.83L40.89 144.8L40.88 144.77L40.87 144.74L40.86 144.71L40.85 144.68L40.83 144.65L40.82 144.62L40.81 144.59L40.8 144.57L40.79 144.54L40.78 144.51L40.77 144.48L40.76 144.45L40.75 144.42L40.74 144.39L40.74 144.36L40.73 144.33L40.72 144.3L40.71 144.27L40.7 144.24L40.69 144.21L40.68 144.18L40.67 144.15L40.67 144.12L40.66 144.09L40.65 144.06L40.64 144.03L40.63 144L40.62 143.94L40.6 143.88L40.59 143.85L40.58 143.82L40.57 143.79L40.57 143.76L40.56 143.73L40.55 143.7L40.54 143.67L40.53 143.64L40.52 143.61L40.52 143.59L40.51 143.56L40.5 143.54L40.49 143.51L40.48 143.49L40.48 143.47L40.47 143.44L40.46 143.42L40.45 143.39L40.45 143.37L40.43 143.32L40.41 143.24L40.4 143.22L40.38 143.17L40.37 143.15L40.37 143.12L40.36 143.1L40.35 143.07L40.34 143.05L40.33 143.02L40.33 143L40.32 142.98L40.31 142.95L40.3 142.93L40.3 142.9L40.29 142.88L40.28 142.85L40.28 142.83L40.27 142.8L40.26 142.78L40.26 142.75L40.25 142.73L40.25 142.7L40.24 142.68L40.23 142.65L40.23 142.62L40.21 142.51L40.19 142.4L40.17 142.28L40.15 142.17L40.13 142.06L40.11 141.94L40.1 141.83L40.09 141.71L40.07 141.6L40.06 141.49L40.05 141.37L40.04 141.26L40.03 141.14L40.02 141.03L40.02 140.91L40.01 140.8L40.01 140.68L40.01 140.57L40.01 140.45L40 140.34L40.01 140.23L40.01 140.11L40.01 140L40.01 139.88L40.02 139.77L40.02 139.65L40.03 139.54L40.04 139.42L40.05 139.31L40.06 139.19L40.07 139.08L40.09 138.96L40.1 138.85L40.11 138.74L40.13 138.62L40.15 138.51L40.17 138.4L40.19 138.28L40.21 138.17L40.23 138.06L40.23 138.03L40.24 138L40.25 137.98L40.25 137.95L40.26 137.93L40.26 137.9L40.27 137.88L40.28 137.85L40.28 137.83L40.29 137.8L40.3 137.78L40.3 137.75L40.31 137.73L40.32 137.7L40.33 137.68L40.33 137.65L40.34 137.63L40.35 137.6L40.36 137.58L40.37 137.55L40.37 137.53L40.38 137.5L40.39 137.48L40.41 137.43L40.43 137.36L40.44 137.33L40.45 137.31L40.45 137.28L40.46 137.26L40.47 137.23L40.48 137.21L40.48 137.19L40.49 137.16L40.5 137.14L40.51 137.11L40.52 137.09L40.52 137.06L40.53 137.03L40.54 137L40.55 136.97L40.56 136.94L40.57 136.91L40.57 136.88L40.58 136.85L40.59 136.82L40.61 136.76L40.62 136.7L40.63 136.67L40.64 136.64L40.65 136.61L40.66 136.58L40.67 136.55L40.67 136.52L40.68 136.49L40.69 136.47L40.7 136.44L40.71 136.41L40.72 136.38L40.73 136.35L40.74 136.32L40.74 136.29L40.75 136.26L40.76 136.23L40.77 136.2L40.78 136.17L40.79 136.14L40.8 136.11L40.81 136.08L40.82 136.05L40.83 136.02L40.85 135.99L40.86 135.96L40.87 135.93L40.88 135.91L40.89 135.88L40.9 135.85L40.92 135.82L40.93 135.79L40.94 135.76L40.95 135.73L40.97 135.7L40.98 135.68L40.99 135.65L41.01 135.62L41.02 135.59L41.04 135.56L41.05 135.54L41.06 135.51L41.08 135.48L41.09 135.45L41.11 135.43L41.12 135.4L41.14 135.37L41.15 135.34L41.17 135.32L41.18 135.29L41.2 135.26L41.21 135.24L41.23 135.21L41.24 135.18L41.26 135.15L41.29 135.1L41.31 135.07L41.32 135.05L41.34 135.02L41.37 134.96L41.38 134.94L41.4 134.91L41.41 134.88L41.43 134.86L41.44 134.83L41.46 134.8L41.47 134.77L41.49 134.75L41.5 134.73L41.51 134.71L41.52 134.68L41.53 134.66L41.55 134.64L41.56 134.61L41.57 134.59L41.58 134.57L41.59 134.55L41.62 134.5L41.64 134.45L41.65 134.43L41.67 134.39L41.69 134.36L41.7 134.34L41.71 134.32L41.72 134.29L41.73 134.27L41.74 134.25L41.76 134.23L41.77 134.2L41.78 134.18L41.79 134.16L41.81 134.14L41.82 134.11L41.83 134.09L41.84 134.07L41.86 134.05L41.87 134.02L41.88 134L41.9 133.98L41.91 133.96L41.92 133.93L41.94 133.91L41.95 133.89L41.96 133.87L42 133.82L42.03 133.77L42.06 133.73L42.1 133.68L42.13 133.63L42.16 133.58L42.19 133.54L42.23 133.49L42.26 133.44L42.3 133.4L42.33 133.35L42.37 133.31L42.4 133.26L42.43 133.21L42.47 133.17L42.51 133.12L42.54 133.08L42.58 133.03L42.61 132.99L42.65 132.94L42.68 132.9L42.72 132.85L42.76 132.81L42.79 132.77L42.83 132.72L42.87 132.68L42.91 132.64L42.94 132.59L42.98 132.55L43.02 132.51L43.06 132.46L43.1 132.42L43.14 132.38L43.18 132.34L43.22 132.3L43.26 132.26L43.3 132.21L43.34 132.17L43.38 132.13L43.42 132.09L97.77 77.73L97.69 77.5L97.61 77.27L97.53 77.05L97.45 76.81L97.37 76.58L97.3 76.35L97.23 76.12L97.16 75.88L97.09 75.65L97.02 75.41L96.96 75.18L96.89 74.94L96.83 74.7L96.77 74.46L96.72 74.22L96.66 73.98L96.61 73.74L96.56 73.5L96.51 73.26L96.46 73.01L96.42 72.77L96.38 72.52L96.34 72.28L96.3 72.03L96.26 71.79L96.23 71.54L96.2 71.29L96.17 71.04L96.14 70.79L96.12 70.54L96.1 70.29L96.08 70.04L96.06 69.78L96.04 69.53L96.03 69.28L96.02 69.02L96.01 68.77L96 68.51L96 68.26L96 68L96.02 66.85L96.09 65.7L96.21 64.57L96.37 63.46L96.57 62.36L96.81 61.27L97.1 60.2L97.43 59.15L97.79 58.12L98.2 57.1L98.64 56.11L99.13 55.13L99.64 54.18L100.19 53.25L100.78 52.34L101.4 51.46L102.05 50.61L102.74 49.78L103.46 48.98L104.2 48.2L104.97 47.46L105.78 46.74L106.61 46.06L107.46 45.4L108.34 44.78L109.25 44.19L110.18 43.64L111.13 43.13L112.11 42.64L113.1 42.2L114.12 41.79L115.15 41.43L116.2 41.1L117.27 40.81L118.36 40.57L119.46 40.37L120.57 40.21L121.7 40.09L122.85 40.02L124 40L124.32 40L124.65 40.01ZM63.33 55.09L85.28 77.03L77.03 85.28L55.08 63.33L50 63.33L40 46.67L46.67 40L63.33 50L63.33 55.09Z" id="bhK7zjqhC"></path></defs><g><g><g><use xlink:href="#bhK7zjqhC" opacity="1" fill="#037dca" fill-opacity="1"></use></g></g></g></svg>